SplineFontDB: 3.2
FontName: PiperKarot
FullName: PiperKarot
FamilyName: PiperKarot
Weight: Book
Copyright: PepperCarrot by Deevad\n\nBased on "ComicSpice" being my fork already of "Comic Relief" \nmade by David Revoy (Deevad, info@davidrevoy.com) in Nov,2016.\n\noriginal font is copyrighted (c) 2013, Jeff Davis (info@loudifier.com),\nwith Reserved Font Name "Comic Relief". Also, some accent from the font\n"Patrick Hand" by Patrick Wagesreiter, same license were used for \nlatin-extended. \n\nThis Font Software is licensed under the SIL Open Font License, Version 1.1.\nThis license is copied below, and is also available with a FAQ at:\nhttp://scripts.sil.org/OFL\n\nAdapted to PiperKarot for Lojban/Zbalermorna in 2019 by Jack Humbert\n
Version: 1.1
ItalicAngle: 0
UnderlinePosition: -175
UnderlineWidth: 85
Ascent: 800
Descent: 200
InvalidEm: 0
sfntRevision: 0x0001199a
LayerCount: 3
Layer: 0 1 "Back" 1
Layer: 1 0 "Fore" 0
Layer: 2 0 "Back 2" 1
XUID: [1021 578 742194275 15552673]
StyleMap: 0x0040
FSType: 8
OS2Version: 4
OS2_WeightWidthSlopeOnly: 0
OS2_UseTypoMetrics: 0
CreationTime: 1358538608
ModificationTime: 1589917458
PfmFamily: 65
TTFWeight: 400
TTFWidth: 5
LineGap: 0
VLineGap: 0
Panose: 3 15 7 2 3 3 2 2 2 4
OS2TypoAscent: 800
OS2TypoAOffset: 0
OS2TypoDescent: -292
OS2TypoDOffset: 0
OS2TypoLinegap: 0
OS2WinAscent: 1102
OS2WinAOffset: 0
OS2WinDescent: 292
OS2WinDOffset: 0
HheadAscent: 1102
HheadAOffset: 0
HheadDescent: -292
HheadDOffset: 0
OS2SubXSize: 700
OS2SubYSize: 650
OS2SubXOff: 0
OS2SubYOff: 143
OS2SupXSize: 700
OS2SupYSize: 650
OS2SupXOff: 0
OS2SupYOff: 453
OS2StrikeYSize: 85
OS2StrikeYPos: 308
OS2FamilyClass: 2568
OS2Vendor: 'LOUD'
OS2CodePages: 2000009f.00000000
OS2UnicodeRanges: 00000287.00000000.00000000.00000000
Lookup: 4 0 1 "zlmFF" { "zlmFF subtable"  } ['liga' ('latn' <'dflt' > 'DFLT' <'dflt' > ) ]
Lookup: 4 0 1 "zlmSFF" { "zlmSFF subtable"  } ['liga' ('latn' <'dflt' > 'DFLT' <'dflt' > ) ]

StartChar: exclam
Encoding: 1 33 1
Width: 211
GlyphClass: 2
Flags: W
HStem: -32 122<48.1764 140.562> 764 20G<97 113.5>
VStem: 34 121<-17.4209 75.5106> 56 86<156.457 780.139>
LayerCount: 3
Fore
SplineSet
79 88 m 0xe0
 84 89 89 90 94 90 c 0
 100 90 105 89 110 88 c 0
 120 85 130 79 137 72 c 0
 146 64 151 55 153 45 c 0
 154 40 155 35 155 29 c 0
 155 22 154 18 153 14 c 0
 150 2 144 -8 135 -16 c 0
 126 -24 116 -29 103 -31 c 0
 100 -31 97 -32 94 -32 c 0
 85 -32 76 -29 68 -25 c 0
 57 -20 48 -12 42 -1 c 0
 36 8 34 18 34 29 c 0
 34 37 35 46 38 53 c 0
 42 62 48 69 55 75 c 0
 62 81 69 85 79 88 c 0xe0
99 784 m 0
 128 784 143 769 143 740 c 2
 142 192 l 2
 142 166 128 153 98 153 c 0
 97 153 97 153 96 153 c 0
 70 152 56 166 56 195 c 2
 56 741 l 2
 56 742 l 0xd0
 56 771 69 785 97 784 c 0
 98 784 98 784 99 784 c 0
EndSplineSet
EndChar

StartChar: quotedbl
Encoding: 2 34 2
Width: 389
GlyphClass: 2
Flags: W
HStem: 455 320
VStem: 36 86<458.966 721> 43 86<503 769.703> 221 87<457.395 719> 228 86<501 767.703>
CounterMasks: 1 58
LayerCount: 3
Fore
SplineSet
86 775 m 0xa0
 115 773 129 758 129 727 c 0
 129 726 129 725 129 724 c 2xa0
 122 502 l 2
 121 471 107 455 81 455 c 2
 80 455 l 2
 50 455 36 470 36 500 c 0
 36 501 36 502 36 503 c 2xc0
 43 721 l 2
 44 757 58 775 84 775 c 0
 85 775 85 775 86 775 c 0xa0
271 773 m 0
 300 771 314 756 314 725 c 0
 314 724 314 723 314 722 c 2x88
 308 500 l 2
 307 469 293 453 267 453 c 2
 266 453 l 2
 236 453 221 468 221 498 c 0
 221 499 221 500 221 501 c 2x90
 228 719 l 2x88
 229 755 243 773 269 773 c 0
 270 773 270 773 271 773 c 0
EndSplineSet
EndChar

StartChar: numbersign
Encoding: 3 35 3
Width: 629
GlyphClass: 2
Flags: W
HStem: 194 86<13.5469 142 215 355 429 564.74> 484 86<60.7031 196 270 409 484 612.648>
VStem: 453 54<680.25 760.114>
LayerCount: 3
Fore
SplineSet
56 533 m 0
 57 557 79 570 123 570 c 0
 169 570 169 570 212 570 c 1
 239 717 l 2
 246 754 258 768 275 759 c 0
 294 749 299 723 291 681 c 2
 270 570 l 1
 348 570 347 570 425 570 c 1
 453 717 l 2
 460 754 471 768 488 759 c 0
 513 749 519 723 507 681 c 2
 484 571 l 1
 564 571 l 2
 602 571 621 557 620 530 c 0
 619 499 596 483 552 483 c 0
 500 483 500 483 467 483 c 1
 429 281 l 1
 516 281 l 2
 554 281 573 267 572 240 c 0
 571 209 549 193 505 193 c 0
 474 193 442 194 412 194 c 1
 384 48 l 2
 378 19 367 9 347 19 c 0
 332 26 328 51 336 93 c 2
 355 194 l 1
 199 194 l 1
 171 48 l 2
 165 19 153 9 133 19 c 0
 112 26 107 51 119 93 c 2
 142 195 l 1
 53 195 l 2
 22 195 8 211 9 243 c 0
 10 267 31 280 75 280 c 2
 158 280 l 1
 196 484 l 1
 101 485 l 2
 70 485 55 501 56 533 c 0
215 280 m 1
 371 280 l 1
 409 484 l 1
 254 484 l 1
 215 280 l 1
EndSplineSet
EndChar

StartChar: dollar
Encoding: 4 36 4
Width: 572
GlyphClass: 2
Flags: W
HStem: -31 90<164.914 226>
VStem: 226 85<-171.002 -31 70 308 409 616 721 833.801>
LayerCount: 3
Fore
SplineSet
268 837 m 0
 296 837 310 825 310 800 c 2
 311 721 l 1
 313 721 313 721 315 721 c 0
 348 721 389 708 440 681 c 0
 461 672 471 655 471 632 c 0
 471 619 461 608 442 600 c 0
 425 593 405 596 381 606 c 0
 355 622 332 630 311 630 c 1
 311 517 311 517 311 404 c 1
 318 403 324 403 330 402 c 0
 384 394 424 377 451 349 c 0
 492 307 512 259 509 207 c 0
 504 126 463 63 384 16 c 0
 363 -3 339 -17 311 -24 c 1
 311 -121 l 2
 311 -158 297 -176 268 -176 c 0
 241 -176 227 -157 227 -120 c 0
 227 -90 226 -61 226 -31 c 1
 188 -31 155 -23 126 -7 c 0
 100 4 78 17 60 33 c 0
 33 57 21 81 25 106 c 0
 28 128 38 142 54 149 c 0
 75 158 99 148 125 120 c 0
 142 99 159 83 175 74 c 0
 192 65 209 60 226 59 c 1
 226 310 l 1
 144 312 92 356 71 444 c 0
 59 494 66 544 95 594 c 0
 116 630 147 662 188 689 c 0
 200 698 212 705 225 710 c 1
 225 755 225 755 225 800 c 0
 225 825 239 837 268 837 c 0
311 308 m 1
 311 70 l 1
 338 80 356 94 367 111 c 0
 403 153 414 197 402 242 c 0
 392 279 362 301 311 308 c 1
226 409 m 1
 225 616 l 1
 213 609 202 601 193 590 c 0
 173 566 163 540 161 510 c 0
 157 452 172 419 206 411 c 1
 226 409 l 1
EndSplineSet
EndChar

StartChar: percent
Encoding: 5 37 5
Width: 744
GlyphClass: 2
Flags: W
HStem: -14 80<530.288 601.078> 232 79<530.003 601.581> 510 72<142.774 246.951> 730 70<140.751 246.117>
VStem: 48 72<604.43 708.302> 269 70<604.251 707.238> 432 80<83.1421 215.109> 619 78<82.6826 216.298>
LayerCount: 3
Fore
SplineSet
544 786 m 0
 558 775 562 758 556 737 c 2
 234 -16 l 2
 222 -43 203 -50 176 -38 c 0
 149 -26 143 -6 155 20 c 2
 510 772 l 2
 517 793 528 798 544 786 c 0
145 792 m 0
 161 798 177 800 194 800 c 0
 203 800 211 799 219 797 c 0
 245 792 269 782 288 766 c 0
 308 749 322 729 330 705 c 0
 336 689 339 672 339 655 c 0
 339 647 339 638 337 630 c 0
 332 604 321 581 304 561 c 0
 287 541 265 526 240 518 c 0
 225 513 209 510 193 510 c 0
 183 510 174 511 164 513 c 0
 138 519 115 530 95 548 c 0
 76 565 63 586 56 610 c 0
 51 624 48 639 48 655 c 0
 48 665 49 675 51 684 c 0
 56 710 67 732 84 750 c 0
 101 769 122 784 145 792 c 0
195 582 m 2
 209 582 222 586 233 593 c 0
 245 600 253 609 260 621 c 0
 266 632 269 644 269 656 c 0
 269 657 269 658 269 659 c 0
 268 673 263 686 256 697 c 0
 251 705 244 711 236 717 c 0
 228 723 219 727 210 729 c 0
 205 730 200 730 194 730 c 0
 179 730 166 727 154 719 c 0
 140 710 131 698 125 682 c 0
 122 674 120 665 120 656 c 0
 120 649 121 642 123 635 c 0
 128 619 137 607 150 597 c 0
 163 587 178 582 194 582 c 2
 195 582 l 2
530 301 m 0
 541 307 553 311 565 311 c 0
 571 311 578 310 584 308 c 0
 603 303 621 290 640 272 c 0
 662 253 679 231 688 204 c 0
 695 186 697 167 697 148 c 0
 697 139 697 130 696 121 c 0
 691 91 678 65 659 43 c 0
 640 21 620 5 599 -5 c 0
 588 -11 577 -14 565 -14 c 0
 558 -14 551 -13 544 -11 c 0
 525 -5 506 8 485 28 c 0
 464 47 449 71 440 98 c 0
 435 114 432 131 432 148 c 0
 432 159 434 171 436 181 c 0
 442 210 453 234 472 254 c 0
 491 276 510 292 530 301 c 0
566 66 m 2
 576 66 585 70 593 78 c 0
 601 86 608 97 613 110 c 0
 617 122 619 135 619 149 c 0
 619 151 619 152 619 153 c 0
 619 169 615 183 610 195 c 0
 606 204 602 211 596 218 c 0
 590 224 584 228 577 230 c 0
 573 231 570 232 566 232 c 0
 555 232 546 228 537 219 c 0
 527 209 520 195 516 178 c 0
 514 169 512 159 512 149 c 0
 512 141 513 133 514 126 c 0
 517 108 524 94 534 83 c 0
 544 72 554 66 566 66 c 2
EndSplineSet
EndChar

StartChar: ampersand
Encoding: 6 38 6
Width: 524
GlyphClass: 2
Flags: W
HStem: 55 109<408.797 455.688>
LayerCount: 3
Fore
SplineSet
188 114 m 1
 128 42 l 1
 117 14 118 -3 130 -12 c 0
 142 -21 155 -25 168 -24 c 0
 181 -23 188 -23 188 -23 c 0
 202 -11 216 -2 229 4 c 2
 260 18 l 1
 188 114 l 1
231 240 m 1
 272 272 l 2
 300 294 309 315 297 334 c 0
 282 357 261 368 234 365 c 0
 215 363 202 352 194 331 c 0
 193 328 200 309 216 273 c 2
 231 240 l 1
451 -81 m 2
 467 -100 462 -116 435 -127 c 0
 408 -138 387 -133 371 -113 c 2
 320 -47 l 1
 285 -78 l 2
 258 -103 225 -115 186 -114 c 0
 121 -113 72 -88 41 -40 c 0
 19 -5 32 42 81 99 c 2
 156 188 l 1
 140 217 l 2
 107 275 102 321 124 356 c 0
 152 399 194 419 251 416 c 0
 287 414 320 390 352 343 c 0
 381 301 352 243 266 170 c 1
 333 94 l 1
 348 106 l 1
 349 140 373 159 419 164 c 1
 520 160 l 1
 520 105 492 69 436 55 c 0
 434 55 433 54 432 52 c 1
 377 8 l 1
 451 -81 l 2
EndSplineSet
EndChar

StartChar: parenleft
Encoding: 7 40 7
Width: 353
GlyphClass: 2
Flags: W
LayerCount: 3
Fore
SplineSet
263 -104 m 0
 323 -144 336 -178 301 -205 c 0
 277 -223 239 -209 187 -161 c 0
 135 -114 98 -56 76 11 c 0
 45 107 31 206 35 308 c 0
 38 396 59 482 97 569 c 0
 124 632 155 685 193 725 c 0
 245 780 283 795 306 771 c 0
 331 745 313 704 254 650 c 0
 206 606 171 535 150 435 c 0
 132 350 130 264 140 177 c 0
 157 33 198 -60 263 -104 c 0
EndSplineSet
EndChar

StartChar: parenright
Encoding: 8 41 8
Width: 354
GlyphClass: 2
Flags: W
LayerCount: 3
Fore
SplineSet
93 -104 m 0
 158 -60 199 33 216 177 c 0
 226 264 223 350 205 435 c 0
 184 535 150 606 102 650 c 0
 43 704 25 745 50 771 c 0
 73 795 110 780 162 725 c 0
 200 685 232 632 259 569 c 0
 297 482 318 396 321 308 c 0
 325 206 311 107 280 11 c 0
 258 -56 221 -114 169 -161 c 0
 117 -209 79 -223 55 -205 c 0
 20 -178 33 -144 93 -104 c 0
EndSplineSet
EndChar

StartChar: colon
Encoding: 9 58 9
Width: 190
GlyphClass: 2
Flags: W
HStem: -24 121<71.608 163.735> 272 121<72.608 164.735>
VStem: 57 121<-10.6939 82.8142 285.865 377.82>
LayerCount: 3
Fore
SplineSet
116 97 m 0
 117 97 117 97 118 97 c 0
 129 97 139 95 148 89 c 0
 158 83 166 74 171 64 c 0
 176 55 178 46 178 36 c 0
 178 34 178 33 178 31 c 0
 177 19 173 9 166 0 c 0
 159 -8 153 -15 145 -19 c 0
 137 -23 127 -24 117 -24 c 0
 116 -24 115 -24 114 -24 c 0
 104 -24 94 -21 86 -16 c 0
 77 -11 71 -4 65 5 c 0
 59 14 57 25 57 36 c 0
 57 46 59 56 64 65 c 0
 70 74 77 82 85 88 c 0
 94 94 105 97 116 97 c 0
117 393 m 0
 118 393 118 393 119 393 c 0
 130 393 140 391 149 385 c 0
 159 379 167 370 172 360 c 0
 177 351 179 342 179 332 c 0
 179 330 179 329 179 327 c 0
 178 315 174 305 167 296 c 0
 160 288 154 281 146 277 c 0
 138 273 128 272 118 272 c 0
 117 272 116 272 115 272 c 0
 105 272 95 275 87 280 c 0
 78 285 72 292 66 301 c 0
 60 310 58 321 58 332 c 0
 58 342 60 352 65 361 c 0
 71 370 78 378 86 384 c 0
 95 390 106 393 117 393 c 0
EndSplineSet
EndChar

StartChar: semicolon
Encoding: 10 59 10
AltUni2: 00037e.ffffffff.0
Width: 121
GlyphClass: 2
Flags: W
HStem: 267 121<42.608 134.735>
VStem: 15 123<16.3311 105.522> 28 121<280.306 373.814>
LayerCount: 3
Fore
SplineSet
87 388 m 0xa0
 88 388 88 388 89 388 c 0
 100 388 110 386 119 380 c 0
 129 374 137 365 142 355 c 0
 147 346 149 337 149 327 c 0
 149 325 149 324 149 322 c 0
 148 310 144 300 137 291 c 0
 130 283 124 276 116 272 c 0
 108 268 98 267 88 267 c 0
 87 267 86 267 85 267 c 0
 75 267 65 270 57 275 c 0
 48 280 42 287 36 296 c 0
 30 305 28 316 28 327 c 0
 28 337 30 347 35 356 c 0
 41 365 48 373 56 379 c 0
 65 385 76 388 87 388 c 0xa0
15 49 m 0xc0
 15 92 32 114 67 114 c 0
 114 114 138 101 138 76 c 0
 138 51 132 32 120 21 c 1
 99 -24 l 2
 73 -80 34 -112 -17 -119 c 1
 -15 -119 -4 -92 14 -41 c 2
 34 16 l 1
 21 23 15 34 15 49 c 0xc0
EndSplineSet
EndChar

StartChar: less
Encoding: 11 60 11
Width: 352
GlyphClass: 2
Flags: W
LayerCount: 3
Fore
SplineSet
30 339 m 2
 217 501 l 2
 245 525 269 525 289 500 c 0
 306 479 300 456 272 432 c 2
 119 302 l 1
 278 170 l 2
 300 152 300 131 280 108 c 0
 262 88 243 87 221 105 c 2
 34 256 l 2
 16 271 6 284 6 295 c 0
 6 311 14 325 30 339 c 2
EndSplineSet
EndChar

StartChar: greater
Encoding: 12 62 12
Width: 367
GlyphClass: 2
Flags: W
LayerCount: 3
Fore
SplineSet
305 353 m 2
 321 339 329 325 329 309 c 0
 329 298 320 285 302 270 c 2
 115 119 l 2
 93 101 73 102 55 122 c 0
 34 145 35 166 57 184 c 2
 216 315 l 1
 63 445 l 2
 35 469 29 493 46 514 c 0
 66 539 90 539 118 515 c 2
 305 353 l 2
EndSplineSet
EndChar

StartChar: question
Encoding: 13 63 13
Width: 464
GlyphClass: 2
Flags: W
HStem: -34 121<124.398 218.291>
VStem: 111 120<-20.4209 73.7266> 132 98<186.176 315.587>
LayerCount: 3
Fore
SplineSet
156 86 m 0xa0
 161 87 166 87 171 87 c 0
 177 87 182 86 187 85 c 0
 197 82 207 77 214 70 c 0
 223 62 228 53 230 43 c 0xa0
 231 38 231 33 231 27 c 0xc0
 231 20 231 16 230 12 c 0xa0
 227 0 221 -11 212 -19 c 0
 203 -27 193 -31 180 -33 c 0
 177 -33 174 -34 171 -34 c 0
 162 -34 153 -32 145 -28 c 0
 134 -23 125 -15 119 -4 c 0
 113 5 111 16 111 27 c 0xc0
 111 35 112 43 115 50 c 0
 119 59 125 67 132 73 c 0
 139 79 146 83 156 86 c 0xa0
49 654 m 0
 87 697 148 719 232 721 c 0
 326 723 381 671 396 564 c 0
 414 438 381 364 294 340 c 0
 252 323 230 301 230 274 c 0
 229 209 214 177 185 175 c 0
 141 173 123 208 132 283 c 0
 140 350 176 395 239 416 c 0
 290 437 308 480 295 547 c 0
 286 591 266 616 235 622 c 0
 192 628 157 618 131 595 c 0
 91 559 62 548 44 562 c 0
 14 585 16 616 49 654 c 0
EndSplineSet
EndChar

StartChar: bracketleft
Encoding: 14 91 14
Width: 360
GlyphClass: 2
Flags: W
HStem: -203 95<143 305.969> 646 94<153 287.094>
VStem: 55 88<-110 419.2> 61 92<116.8 646>
LayerCount: 3
Fore
SplineSet
251 741 m 2xd0
 279 741 293 726 293 693 c 0
 293 662 275 646 240 646 c 2
 153 646 l 1xd0
 143 -110 l 1
 184 -110 226 -109 267 -108 c 0
 297 -108 312 -124 312 -157 c 0
 312 -187 293 -203 258 -203 c 0
 255 -203 204 -202 103 -202 c 0
 70 -202 55 -181 55 -140 c 2xe0
 61 680 l 2
 61 720 77 740 109 740 c 2
 251 741 l 2xd0
EndSplineSet
EndChar

StartChar: bracketright
Encoding: 15 93 15
Width: 360
GlyphClass: 2
Flags: W
HStem: -204 96<61.7786 224> 646 95<79.9062 214>
VStem: 214 93<116.8 646> 224 88<-110 419.2>
LayerCount: 3
Fore
SplineSet
116 741 m 2xe0
 258 740 l 2
 290 740 307 720 307 680 c 2xe0
 312 -140 l 2
 312 -181 297 -201 264 -202 c 0
 161 -204 110 -205 109 -204 c 0
 74 -204 56 -188 56 -157 c 0
 56 -124 70 -108 100 -108 c 0
 141 -108 183 -109 224 -110 c 1xd0
 214 646 l 1
 127 646 l 2
 92 646 74 662 74 693 c 0
 74 726 88 741 116 741 c 2xe0
EndSplineSet
EndChar

StartChar: braceleft
Encoding: 16 123 16
Width: 346
GlyphClass: 2
Flags: W
HStem: -187 91<212.264 313.571> 700 91<208.124 321.283>
VStem: 101 91<-78.5781 197.074 356.926 686.4>
LayerCount: 3
Fore
SplineSet
102 390 m 2
 101 598 l 2
 100 727 152 791 258 791 c 0
 305 791 329 777 329 750 c 0
 329 713 303 696 251 700 c 0
 211 703 191 669 192 595 c 2
 193 388 l 2
 193 354 171 317 127 277 c 1
 171 237 193 200 193 166 c 2
 192 9 l 2
 191 -62 211 -97 252 -96 c 0
 298 -95 321 -109 321 -138 c 0
 321 -171 300 -187 258 -187 c 0
 152 -187 100 -123 101 6 c 2
 102 165 l 2
 102 181 84 198 48 219 c 0
 15 238 0 257 1 277 c 1
 0 297 15 316 48 335 c 0
 84 356 102 374 102 390 c 2
EndSplineSet
EndChar

StartChar: braceright
Encoding: 17 125 17
Width: 346
GlyphClass: 2
Flags: W
HStem: -187 91<17.7498 118.736> 700 91<9.8186 122.876>
VStem: 139 91<-78.5781 197.074 356.926 686.4>
LayerCount: 3
Fore
SplineSet
228 390 m 2
 228 374 247 356 283 335 c 0
 316 316 331 297 330 277 c 1
 331 257 316 238 283 219 c 0
 247 198 228 181 228 165 c 2
 230 6 l 2
 231 -123 179 -187 73 -187 c 0
 32 -187 11 -171 10 -138 c 0
 9 -109 33 -95 80 -96 c 0
 120 -97 140 -62 139 9 c 2
 138 166 l 2
 138 200 160 237 204 277 c 1
 160 317 138 354 138 388 c 2
 139 595 l 2
 140 669 120 703 80 700 c 0
 29 696 2 713 2 750 c 0
 2 777 26 791 73 791 c 0
 179 791 231 727 230 598 c 2
 228 390 l 2
EndSplineSet
EndChar

StartChar: guillemotleft
Encoding: 18 171 18
Width: 369
GlyphClass: 2
Flags: W
LayerCount: 3
Fore
SplineSet
30 339 m 2
 217 501 l 2
 245 525 269 525 289 500 c 0
 306 479 300 456 272 432 c 2
 119 302 l 1
 278 170 l 2
 300 152 300 131 280 108 c 0
 262 88 243 87 221 105 c 2
 34 256 l 2
 16 271 6 284 6 295 c 0
 6 311 14 325 30 339 c 2
252.16796875 339 m 2
 439.16796875 501 l 2
 467.16796875 525 491.16796875 525 511.16796875 500 c 0
 528.16796875 479 522.16796875 456 494.16796875 432 c 2
 341.16796875 302 l 1
 500.16796875 170 l 2
 522.16796875 152 522.16796875 131 502.16796875 108 c 0
 484.16796875 88 465.16796875 87 443.16796875 105 c 2
 256.16796875 256 l 2
 238.16796875 271 228.16796875 284 228.16796875 295 c 0
 228.16796875 311 236.16796875 325 252.16796875 339 c 2
EndSplineSet
EndChar

StartChar: guillemotright
Encoding: 19 187 19
Width: 369
GlyphClass: 2
Flags: W
LayerCount: 3
Fore
SplineSet
261.0546875 353 m 2
 277.0546875 339 285.0546875 325 285.0546875 309 c 0
 285.0546875 298 276.0546875 285 258.0546875 270 c 2
 71.0546875 119 l 2
 49.0546875 101 29.0546875 102 11.0546875 122 c 0
 -9.9453125 145 -8.9453125 166 13.0546875 184 c 2
 172.0546875 315 l 1
 19.0546875 445 l 2
 -8.9453125 469 -14.9453125 493 2.0546875 514 c 0
 22.0546875 539 46.0546875 539 74.0546875 515 c 2
 261.0546875 353 l 2
482.24609375 353 m 2
 498.24609375 339 506.24609375 325 506.24609375 309 c 0
 506.24609375 298 497.24609375 285 479.24609375 270 c 2
 292.24609375 119 l 2
 270.24609375 101 250.24609375 102 232.24609375 122 c 0
 211.24609375 145 212.24609375 166 234.24609375 184 c 2
 393.24609375 315 l 1
 240.24609375 445 l 2
 212.24609375 469 206.24609375 493 223.24609375 514 c 0
 243.24609375 539 267.24609375 539 295.24609375 515 c 2
 482.24609375 353 l 2
EndSplineSet
EndChar

StartChar: seplimeabu
Encoding: 68 60848 20
Width: 406
Flags: W
HStem: 418 91<143 377.7>
VStem: 36 96<-14.2396 240> 50 93<240 418>
LayerCount: 3
Fore
SplineSet
101 511 m 0xa0
 109 512 116 511 122 509 c 1
 188 511 258 513 332 514 c 0
 369 515 387 500 386 471 c 0
 385 435 365 417 329 417 c 2
 143 418 l 1xa0
 132 33 l 2
 131 -3 114 -21 81 -22 c 0
 49 -23 35 -6 36 30 c 2xc0
 50 450 l 2
 51 487 69 508 101 511 c 0xa0
EndSplineSet
Ligature2: "zlmSF subtable" slakabu seplimeabu
EndChar

StartChar: seplimeebu
Encoding: 69 60849 21
Width: 542
VWidth: 976
Flags: W
HStem: 0 21G<69 153> 222 70<153 481>
VStem: 69 84<0 222 292 495>
AnchorPoint: "Anchor-3" 111 -52 basechar 0
AnchorPoint: "Anchor-1" 192 529 basechar 0
LayerCount: 3
Fore
SplineSet
481 222 m 1
 153 222 l 1
 153 0 l 1
 69 0 l 1
 69 495 l 1
 153 495 l 0
 153 292 l 0
 481 292 l 1
 481 222 l 1
EndSplineSet
Ligature2: "zlmSF subtable" slakabu seplimeebu
EndChar

StartChar: seplimeibu
Encoding: 70 60850 22
Width: 517
Flags: W
HStem: -22 21G<101 133.5 375 407.5> 408 96<164 342>
VStem: 69 97<-16.4737 408> 343 96<-16.4737 408>
LayerCount: 3
Fore
SplineSet
117 504 m 0
 121 504 121 504 125 504 c 0
 126 504 126 504 127 504 c 2
 383 504 l 2
 385 504 386 504 388 504 c 0
 389 504 390 504 391 504 c 0
 422 505 437 490 437 459 c 2
 439 30 l 2
 439 -5 424 -22 391 -22 c 0
 359 -22 343 -5 343 30 c 0
 343 156 342 282 342 408 c 1
 164 408 l 1
 166 30 l 2
 166 -5 150 -22 117 -22 c 0
 85 -22 69 -5 69 30 c 2
 68 456 l 2
 68 487 84 503 117 504 c 0
EndSplineSet
Ligature2: "zlmSF subtable" slakabu seplimeibu
EndChar

StartChar: seplimeubu
Encoding: 72 60852 24
Width: 517
Flags: W
HStem: -22 97<165 344> 484 20G<100.5 133 374.5 407>
VStem: 70 95<75 498.726> 344 95<75 498.726>
LayerCount: 3
Fore
SplineSet
391 -22 m 0
 387 -22 387 -22 383 -22 c 0
 382 -22 382 -22 381 -22 c 2
 125 -22 l 2
 123 -22 122 -22 120 -22 c 0
 119 -22 118 -22 117 -22 c 0
 86 -23 70 -8 70 23 c 2
 68 453 l 2
 68 488 84 504 117 504 c 0
 149 504 165 488 165 453 c 0
 165 327 165 201 165 75 c 1
 344 75 l 1
 342 453 l 2
 342 488 358 504 391 504 c 0
 423 504 438 488 438 453 c 2
 439 27 l 2
 439 -4 424 -21 391 -22 c 0
EndSplineSet
Ligature2: "zlmSF subtable" slakabu seplimeubu
EndChar

StartChar: seplimeybu
Encoding: 73 60853 25
Width: 542
VWidth: 976
Flags: W
HStem: 0 21G<231 315> 222 70<69 231 315 481>
VStem: 231 84<0 221 292 495>
AnchorPoint: "Anchor-3" 111 -52 basechar 0
AnchorPoint: "Anchor-1" 354 529 basechar 0
LayerCount: 3
Fore
SplineSet
481 222 m 1
 315 222 l 1
 315 0 l 1
 231 0 l 1
 231 221 l 0
 69 221 l 0
 69 292 l 4
 231 292 l 0
 231 495 l 1
 315 495 l 0
 315 292 l 0
 481 292 l 1
 481 222 l 1
EndSplineSet
Ligature2: "zlmSF subtable" slakabu seplimeybu
EndChar

StartChar: seplimeaibu
Encoding: 74 60854 26
Width: 542
VWidth: 976
Flags: W
HStem: 0 70<153 481> 424 71<153 481>
VStem: 69 84<70 424>
AnchorPoint: "Anchor-3" 111 -52 basechar 0
AnchorPoint: "Anchor-1" 192 529 basechar 0
LayerCount: 3
Fore
SplineSet
481 70 m 1
 481 0 l 1
 153 0 l 1
 69 0 l 1
 69 495 l 1
 153 495 l 1
 481 495 l 1
 481 424 l 1
 153 424 l 1
 153 70 l 1
 481 70 l 1
EndSplineSet
Ligature2: "zlmSFF subtable" slakabu seplimeaibu
Ligature2: "zlmFF subtable" seplimeabu seplimeibu
EndChar

StartChar: seplimeeibu
Encoding: 75 60855 27
Width: 359
Flags: W
LayerCount: 3
Fore
SplineSet
149 70 m 0
 194 65 223 76 235 99 c 0
 248 126 251 145 243 157 c 0
 230 178 202 191 163 199 c 0
 92 213 53 239 45 276 c 0
 35 323 36 362 48 393 c 0
 60 424 80 452 110 478 c 0
 132 497 162 509 200 513 c 0
 212 514 234 507 265 491 c 0
 300 472 319 456 323 442 c 0
 329 375 l 0
 303 396 276 411 250 419 c 0
 235 427 211 427 178 420 c 0
 156 415 140 402 130 379 c 0
 120 356 118 339 124 327 c 0
 134 306 157 293 194 287 c 0
 208 285 226 276 249 263 c 0
 285 242 309 225 319 213 c 0
 338 189 345 154 339 108 c 0
 334 68 312 34 271 5 c 0
 240 -17 207 -28 175 -28 c 0
 148 -28 122 -25 97 -17 c 0
 58 0 l 0
 16 25 2 70 17 135 c 0
 45 108 65 91 77 86 c 0
 96 78 120 73 149 70 c 0
EndSplineSet
Ligature2: "zlmSFF subtable" slakabu seplimeeibu
Ligature2: "zlmFF subtable" seplimeebu seplimeibu
EndChar

StartChar: seplimeoibu
Encoding: 76 60856 28
Width: 542
VWidth: 976
Flags: W
HStem: 0 70<69 397> 424 71<69 397>
VStem: 397 84<70 424>
AnchorPoint: "Anchor-3" 313 -52 basechar 0
AnchorPoint: "Anchor-1" 358 529 basechar 0
LayerCount: 3
Fore
SplineSet
69 70 m 1
 397 70 l 1
 397 424 l 1
 69 424 l 1
 69 495 l 1
 397 495 l 1
 481 495 l 1
 481 0 l 1
 397 0 l 1
 69 0 l 1
 69 70 l 1
EndSplineSet
Ligature2: "zlmSFF subtable" slakabu seplimeoibu
Ligature2: "zlmFF subtable" seplimeobu seplimeibu
EndChar

StartChar: seplimeaubu
Encoding: 77 60857 29
Width: 476
Flags: W
LayerCount: 3
Fore
SplineSet
45 501 m 0
 74 524 101 517 126 480 c 2
 229 327 l 1
 331 480 l 2
 356 518 383 525 412 501 c 0
 433 483 433 458 411 426 c 2
 289 248 l 1
 398 72 l 2
 423 32 425 3 407 -13 c 0
 379 -37 353 -31 326 8 c 2
 229 151 l 1
 130 8 l 2
 103 -31 76 -37 49 -13 c 0
 29 5 33 33 59 72 c 2
 176 246 l 1
 46 426 l 2
 23 458 22 482 45 501 c 0
EndSplineSet
Ligature2: "zlmSFF subtable" slakabu seplimeaubu
Ligature2: "zlmFF subtable" seplimeabu seplimeubu
EndChar

StartChar: denpabu
Encoding: 29 60809 30
Width: 253
Flags: W
HStem: 289 121<79.608 171.735>
VStem: 65 121<302.306 395.814>
AnchorPoint: "Below" 124 0 basechar 0
AnchorPoint: "Above" 121 647 basechar 0
LayerCount: 3
Fore
SplineSet
124 410 m 0
 125 410 125 410 126 410 c 0
 137 410 147 408 156 402 c 0
 166 396 174 387 179 377 c 0
 184 368 186 359 186 349 c 0
 186 347 186 346 186 344 c 0
 185 332 181 322 174 313 c 0
 167 305 161 298 153 294 c 0
 145 290 135 289 125 289 c 0
 124 289 123 289 122 289 c 0
 112 289 102 292 94 297 c 0
 85 302 79 309 73 318 c 0
 67 327 65 338 65 349 c 0
 65 359 67 369 72 378 c 0
 78 387 85 395 93 401 c 0
 102 407 113 410 124 410 c 0
EndSplineSet
Substitution2: "Single Substitution lookup 73 subtable" denpabu.cas
EndChar

StartChar: yhy
Encoding: 30 60810 31
Width: 244
Flags: W
VStem: 59 97<-16.5963 395.875> 67 96<89.125 503.112>
AnchorPoint: "Below" 114 1 basechar 0
AnchorPoint: "Above" 118 646 basechar 0
LayerCount: 3
Fore
SplineSet
118 511 m 0x40
 149 510 164 490 163 448 c 2x40
 156 42 l 2
 155 -2 140 -24 109 -24 c 0
 74 -24 58 -3 59 38 c 2x80
 67 447 l 2
 68 490 85 512 118 511 c 0x40
EndSplineSet
Substitution2: "Single Substitution lookup 75 subtable" yhy.cas
Substitution2: "Single Substitution lookup 74 subtable" yhy.cas
EndChar

StartChar: py
Encoding: 20 60800 32
Width: 389
Flags: W
HStem: 494 20G<293 332.5>
VStem: 55 96<405.333 780.73>
AnchorPoint: "Below" 191 -1 basechar 0
AnchorPoint: "Above" 288 647 basechar 0
LayerCount: 3
Fore
SplineSet
42 41 m 2
 55 736 l 2
 56 768 70 785 99 787 c 0
 135 789 152 773 151 739 c 2
 139 167 l 1
 201 283 261 378 325 514 c 1
 340 505 376 478 366 424 c 1
 313 299 187 82 187 82 c 1
 187 82 150 24 132 -5 c 0
 121 -23 108 -25 82 -25 c 0
 55 -25 41 -2 42 41 c 2
EndSplineSet
EndChar

StartChar: ty
Encoding: 21 60801 33
Width: 462
Flags: W
HStem: 485 20G<231.5 304.5> 767 20G<93 123>
VStem: 46 96<-14.2148 313> 62 87<449 781.458> 305 98<-19.1428 374.868>
AnchorPoint: "Below" 226 0 basechar 0
AnchorPoint: "Above" 304 648 basechar 0
LayerCount: 3
Fore
SplineSet
108 787 m 0xd8
 138 787 152 771 152 738 c 2
 149 449 l 1
 175 487 210 505 253 505 c 0
 356 505 406 431 405 283 c 2
 403 35 l 2
 403 -4 387 -25 356 -28 c 0
 321 -31 305 -13 305 26 c 2
 306 260 l 2
 307 347 290 392 256 396 c 0
 217 401 181 374 149 313 c 1xd8
 142 31 l 2
 141 -4 123 -22 88 -21 c 0
 59 -20 45 -3 46 32 c 2xe8
 62 741 l 2
 63 771 78 786 108 787 c 0xd8
EndSplineSet
EndChar

StartChar: ky
Encoding: 22 60802 34
Width: 465
Flags: W
VStem: 42 96<144 365.333> 57 96<461.333 781.375> 316 100<-18.162 284> 325 94<109 354>
CounterMasks: 1 b0
AnchorPoint: "Above" 312 647 basechar 0
AnchorPoint: "Below" 230 0 basechar 0
LayerCount: 3
Fore
SplineSet
42 41 m 2x90
 57 736 l 2
 58 769 72 786 101 787 c 0
 137 788 154 772 153 739 c 2x40
 138 144 l 1
 320 486 l 2
 323 492 329 497 338 503 c 0
 346 508 356 511 366 511 c 0
 401 512 419 496 419 463 c 2x90
 416 42 l 2
 416 -3 400 -25 369 -26 c 0
 333 -27 315 -6 316 39 c 2x20
 325 354 l 1
 132 -5 l 2
 125 -19 108 -25 82 -25 c 0
 54 -25 41 -2 42 41 c 2x90
EndSplineSet
EndChar

StartChar: vy
Encoding: 39 60819 35
Width: 450
Flags: W
HStem: 421 90<47.1057 257.355>
VStem: 160 96<-14.2596 157>
AnchorPoint: "Above" 210 646 basechar 0
AnchorPoint: "Below" 216 -3 basechar 0
LayerCount: 3
Fore
SplineSet
205 -22 m 0
 174 -21 159 -1 160 41 c 0
 162 149 164 210 165 223 c 1
 171 259 189 306 221 363 c 1
 259 421 l 1
 224 417 183 415 94 421 c 0
 66 423 39 437 40 468 c 0
 41 497 61 511 98 511 c 2
 245 511 l 0
 348 511 l 2
 376 511 392 499 397 474 c 0
 398 465 390 446 371 419 c 2
 316 340 l 1
 282 283 263 222 258 157 c 1
 254 112 l 0
 256 42 l 2
 257 -1 238 -23 205 -22 c 0
EndSplineSet
EndChar

StartChar: ly
Encoding: 24 60804 36
Width: 409
Flags: W
HStem: -23 106<162.361 298.981>
VStem: 31 87<147.565 345.395>
AnchorPoint: "Below" 216 1 basechar 0
AnchorPoint: "Above" 236 647 basechar 0
LayerCount: 3
Fore
SplineSet
304 91 m 0
 362 148 l 0
 389 104 377 61 326 17 c 0
 294 -10 255 -23 207 -23 c 0
 175 -23 141 -4 106 35 c 0
 56 90 31 151 31 216 c 0
 31 291 49 356 85 413 c 0
 124 475 163 509 202 514 c 0
 224 517 249 512 276 502 c 0
 316 487 343 471 355 452 c 0
 375 421 374 397 352 381 c 0
 335 369 311 375 281 400 c 0
 249 427 219 433 190 419 c 0
 173 411 157 391 143 360 c 0
 128 325 119 285 118 237 c 0
 117 206 129 167 151 120 c 0
 162 97 183 85 215 83 c 0
 263 80 292 83 304 91 c 0
EndSplineSet
EndChar

StartChar: sy
Encoding: 25 60805 37
Width: 461
Flags: W
HStem: -11 21G<189.5 242> 490 20G<198.5 231.5> 766 20G<351.5 383>
VStem: 31 87<132.212 339> 312 89<101.326 376.848 459 469.733> 321 95<503.267 780.328>
AnchorPoint: "Below" 213 -2 basechar 0
AnchorPoint: "Above" 141 647 basechar 0
LayerCount: 3
Fore
SplineSet
366 786 m 0xf4
 400 786 417 770 416 738 c 2xf4
 401 235 l 1xf8
 396 130 379 61 349 27 c 1
 323 1 276 -11 208 -11 c 0
 171 -11 136 6 107 40 c 0
 58 97 33 152 31 208 c 0
 29 287 51 360 98 427 c 0
 138 483 178 510 219 510 c 0
 244 510 266 502 285 485 c 0
 295 476 304 468 314 459 c 1
 321 741 l 2
 322 771 337 786 366 786 c 0xf4
306 131 m 24
 309 141 312 213 312 347 c 1xf8
 274 407 237 430 201 416 c 0
 175 406 156 389 144 367 c 0
 128 335 119 290 118 232 c 0
 117 195 126 158 144 122 c 0
 158 93 179 76 207 71 c 0
 256 62 288 82 306 131 c 24
EndSplineSet
EndChar

StartChar: cy
Encoding: 26 60806 38
Width: 440
Flags: W
HStem: 509 20G<82.5 114 216.5 246>
VStem: 40 97<-19.2156 293> 52 94<452 523.58> 287 96<-5.81103 384.406> 296 95<466 729> 302 96<534 774.898>
AnchorPoint: "Below" 213 0 basechar 0
AnchorPoint: "Above" 152 646 basechar 0
LayerCount: 3
Fore
SplineSet
97 529 m 0xa0
 131 529 148 512 147 480 c 2
 146 452 l 1
 169 484 199 500 234 500 c 0
 258 500 278 489 296 466 c 1xa8
 302 729 l 2
 303 764 320 783 355 782 c 0
 384 781 399 764 398 729 c 2x84
 391 534 l 0x88
 382 48 l 1
 383 38 l 2
 385 17 382 0 372 -11 c 0
 364 -20 353 -24 337 -25 c 0
 317 -26 302 -20 293 -6 c 0
 290 -2 288 4 287 13 c 0
 286 18 286 23 286 29 c 2
 287 242 l 2
 287 322 280 370 264 386 c 0
 243 409 216 408 186 385 c 0
 154 360 137 323 138 273 c 2
 139 159 l 0
 137 26 l 2
 136 -10 118 -27 83 -26 c 0
 53 -25 39 -8 40 27 c 2xd0
 52 483 l 2
 53 513 68 529 97 529 c 0xa0
EndSplineSet
EndChar

StartChar: my
Encoding: 27 60807 39
Width: 450
Flags: W
HStem: 1 91<163 406.023> 483 20G<214 244>
AnchorPoint: "Below" 222 0 basechar 0
AnchorPoint: "Above" 228 646 basechar 0
LayerCount: 3
Fore
SplineSet
198 411 m 0
 169 408 143 399 119 384 c 0
 95 369 73 373 55 395 c 1
 47 426 64 454 107 477 c 1
 147 492 l 1
 172 500 199 503 229 503 c 0
 259 503 289 492 320 472 c 0
 359 446 382 414 389 374 c 0
 400 317 371 267 304 226 c 0
 220 175 173 130 163 92 c 1
 357 92 l 2
 394 92 413 75 412 42 c 0
 411 15 391 1 354 1 c 2
 104 1 l 2
 79 1 61 13 54 36 c 0
 48 54 53 78 67 109 c 0
 98 177 156 234 242 281 c 0
 292 308 307 342 285 383 c 0
 273 406 243 415 198 411 c 0
EndSplineSet
EndChar

StartChar: xy
Encoding: 28 60808 40
Width: 394
Flags: W
HStem: -24 92<137.632 239.509> 412 92<149.859 252.204>
VStem: 7 95<109.079 343.201> 291 83<131.103 371.373>
AnchorPoint: "Below" 186 -0 basechar 0
AnchorPoint: "Above" 190 646 basechar 0
LayerCount: 3
Fore
SplineSet
204 412 m 0
 170 411 147 396 134 368 c 0
 113 324 102 275 102 222 c 0
 102 171 110 132 125 107 c 0
 141 81 158 68 178 68 c 0
 215 68 243 84 262 116 c 0
 281 148 291 191 291 244 c 0
 291 358 262 414 204 412 c 0
189 504 m 0
 313 503 375 414 374 237 c 0
 374 155 355 92 317 47 c 1
 284 -1 236 -25 171 -24 c 0
 136 -24 99 0 61 48 c 0
 24 94 7 155 7 231 c 0
 7 299 28 365 72 428 c 0
 107 479 146 504 189 504 c 0
EndSplineSet
EndChar

StartChar: by
Encoding: 36 60816 41
Width: 419
Flags: W
HStem: 497 20G<300 327>
VStem: 241 100<-268.441 125.75>
AnchorPoint: "Below" 103 3 basechar 0
AnchorPoint: "Above" 256 647 basechar 0
LayerCount: 3
Fore
SplineSet
354 452 m 2
 341 181 l 0
 341 -87 l 0
 337 -226 l 2
 336 -259 322 -275 293 -276 c 0
 257 -277 240 -262 241 -229 c 2
 245 19 l 0
 261 324 l 1
 152 135 l 0
 84 1 l 2
 74 -18 52 -24 19 -16 c 0
 -5 -10 -9 8 8 38 c 1
 64 139 l 1
 162 303 l 0
 263 497 l 2
 270 511 287 517 313 517 c 0
 341 517 356 495 354 452 c 2
EndSplineSet
EndChar

StartChar: dy
Encoding: 37 60817 42
Width: 462
Flags: W
HStem: -5 21G<146.5 219.5>
VStem: 46 99<125.993 517.578> 302 90<-200.12 52 152.706 178.615> 309 96<188 514.215>
AnchorPoint: "Below" 136 0 basechar 0
AnchorPoint: "Above" 225 647 basechar 0
LayerCount: 3
Fore
SplineSet
346 -205 m 0xe0
 316 -205 302 -189 302 -156 c 2
 302 52 l 1
 276 14 241 -5 198 -5 c 0
 95 -5 45 70 46 218 c 2
 48 465 l 2
 48 504 64 525 95 528 c 0
 130 531 147 513 147 474 c 2
 145 240 l 2
 144 154 162 109 196 104 c 0
 235 99 270 127 302 188 c 1xe0
 309 469 l 2
 310 504 328 522 363 521 c 0
 392 520 406 503 405 468 c 2xd0
 392 -159 l 2
 391 -190 376 -205 346 -205 c 0xe0
EndSplineSet
EndChar

StartChar: gy
Encoding: 38 60818 43
Width: 492
Flags: W
HStem: 516 20G<381.5 408>
VStem: 40 94<158 304.067> 50 99<324.933 528.17> 321 97<-279.375 11.7059> 338 96<162.562 367>
AnchorPoint: "Below" 163 0 basechar 0
AnchorPoint: "Above" 247 645 basechar 0
LayerCount: 3
Fore
SplineSet
434 471 m 2xc8
 418 -234 l 2
 417 -267 403 -284 374 -285 c 0
 338 -286 320 -270 321 -237 c 2x90
 338 367 l 1
 138 26 l 2
 134 20 128 13 120 8 c 0
 112 3 103 0 93 0 c 0
 57 -1 39 15 40 48 c 2xc8
 50 468 l 2
 51 513 67 536 97 537 c 0
 134 538 151 516 149 471 c 2xa0
 134 158 l 1
 344 516 l 2
 352 530 369 536 394 536 c 0
 422 536 435 514 434 471 c 2xc8
EndSplineSet
EndChar

StartChar: fy
Encoding: 23 60803 44
Width: 450
Flags: W
HStem: -0 90<179.073 388.948>
VStem: 180 98<248.027 524.421>
AnchorPoint: "Below" 222 0 basechar 0
AnchorPoint: "Above" 228 648 basechar 0
LayerCount: 3
Fore
SplineSet
232 533 m 0
 263 532 279 512 278 470 c 0
 276 362 274 301 273 288 c 1
 270 271 269 245 257 215 c 24
 247 190 233 178 216 148 c 1
 179 90 l 1
 179 90 280 104 343 90 c 24
 370 84 398 74 397 43 c 0
 396 14 377 0 340 -0 c 2
 89 -0 l 2
 61 0 45 12 40 37 c 0
 39 46 45 66 66 91 c 2
 95 126 l 0
 122 170 l 1
 156 227 175 289 180 354 c 1
 182 469 l 2
 183 512 199 534 232 533 c 0
EndSplineSet
EndChar

StartChar: ry
Encoding: 40 60820 45
Width: 409
Flags: W
HStem: -24 107<117.963 256.466>
VStem: 300 86<147.741 351.984>
AnchorPoint: "Above" 218 649 basechar 0
AnchorPoint: "Below" 197 1 basechar 0
LayerCount: 3
Fore
SplineSet
112 92 m 0
 124 84 153 81 201 83 c 0
 233 84 255 96 266 119 c 0
 289 165 300 204 300 235 c 0
 300 283 292 324 277 359 c 0
 263 390 248 410 231 419 c 0
 203 433 172 428 139 401 c 0
 109 377 86 370 69 383 c 0
 47 399 46 423 66 454 c 0
 78 472 105 489 146 503 c 0
 173 513 198 516 220 513 c 0
 259 508 298 474 336 411 c 0
 371 354 387 288 386 213 c 0
 385 148 360 88 309 33 c 0
 273 -5 239 -24 207 -24 c 0
 159 -24 119 -9 88 18 c 0
 38 62 26 107 54 151 c 0
 112 92 l 0
EndSplineSet
EndChar

StartChar: zy
Encoding: 41 60821 46
Width: 410
Flags: W
HStem: -29 99<163.05 244.619> 406 99<176.535 260.574>
VStem: 33 96<109.385 338.983> 287 91<124.601 376.546>
AnchorPoint: "Above" 235 647 basechar 0
AnchorPoint: "Below" 256 1 basechar 0
LayerCount: 3
Back
SplineSet
127.302734375 394.53125 m 1,0,1
 153.3203125 433.59375 153.3203125 433.59375 195.740234375 424.8046875 c 0,2,3
 247.55859375 414.0625 247.55859375 414.0625 271.97265625 376.953125 c 0,4,5
 293.45703125 343.75 293.45703125 343.75 292.48046875 272.94921875 c 0,6,7
 291.404296875 227.762695312 291.404296875 227.762695312 250 156.73828125 c 0,8,9
 223.6328125 114.2578125 223.6328125 114.2578125 182.6171875 101.07421875 c 0,10,11
 181.640625 101.07421875 181.640625 101.07421875 117.653320312 89.35546875 c 1,12,-1
 127.302734375 394.53125 l 1,0,1
19.888671875 -229.98046875 m 2,16,17
 19.826171875 -232.826171875 19.826171875 -232.826171875 19.939453125 -235.505859375 c 0,18,19
 16.9892578125 -243.18359375 16.9892578125 -243.18359375 16.7890625 -253.185546875 c 0,20,21
 15.431640625 -297.805664062 15.431640625 -297.805664062 88.7607421875 -296.368164062 c 0,22,23
 146.649414062 -294.311523438 146.649414062 -294.311523438 201.411132812 -210.00390625 c 1,24,-1
 115.168945312 -211.646484375 l 1,25,-1
 115.7421875 -25.87890625 l 1,26,-1
 115.745117188 -24.90234375 l 2,27,28
 116.69921875 -25.390625 116.69921875 -25.390625 116.69921875 -25.87890625 c 1,29,30
 116.69921875 -19.53125 116.69921875 -19.53125 195.545898438 0 c 0,31,32
 255.37109375 14.6484375 255.37109375 14.6484375 309.588867188 86.9140625 c 0,33,34
 379.39453125 179.6875 379.39453125 179.6875 378.90625 289.0625 c 0,35,36
 378.90625 395.5078125 378.90625 395.5078125 329.1015625 456.0546875 c 0,37,38
 278.3203125 518.06640625 278.3203125 518.06640625 198.241210938 518.5546875 c 0,39,40
 49.8046875 518.06640625 49.8046875 518.06640625 35.3701171875 434.41796875 c 1,41,-1
 19.888671875 -229.98046875 l 2,16,17
116.69921875 -25.87890625 m 2,52,-1
 115.7421875 -25.87890625 l 1,53,-1
 115.745117188 -24.90234375 l 2,54,55
 116.69921875 -25.390625 116.69921875 -25.390625 116.69921875 -25.87890625 c 2,52,-1
EndSplineSet
Fore
SplineSet
219 505 m 0
 325 504 378 413 378 231 c 0
 378 162 353 98 303 37 c 0
 276 -7 240 -29 197 -29 c 0
 170 -29 144 -14 119 17 c 1
 107 -149 l 2
 104 -187 84 -205 47 -202 c 0
 21 -200 10 -179 12 -141 c 2
 33 212 l 2
 33 215 33 218 33 220 c 0
 33 225 33 225 33 231 c 0
 33 300 55 363 99 421 c 0
 135 478 174 506 219 505 c 0
222 406 m 0
 195 405 174 390 160 361 c 0
 139 317 129 271 129 222 c 0
 129 171 137 132 152 107 c 0
 167 82 183 70 202 70 c 0
 221 70 240 83 260 109 c 0
 278 132 287 177 287 241 c 0
 287 353 266 408 222 406 c 0
EndSplineSet
EndChar

StartChar: jy
Encoding: 42 60822 47
Width: 431
Flags: W
HStem: -8 21G<182 211.5>
VStem: 29 97<-283.215 26> 45 96<146.062 497.764> 281 94<-31.3281 40 125.484 274> 291 96<219 510.942>
CounterMasks: 1 38
AnchorPoint: "Above" 206 648 basechar 0
AnchorPoint: "Below" 259 -1 basechar 0
LayerCount: 3
Fore
SplineSet
331 -37 m 0x90
 297 -37 280 -21 281 11 c 2
 281 40 l 1
 258 8 229 -8 194 -8 c 0
 170 -8 149 3 131 26 c 1
 126 -238 l 2
 126 -273 107 -291 72 -290 c 0
 43 -289 28 -272 29 -237 c 2xd0
 45 444 l 1
 44 454 l 2
 41 476 45 492 55 503 c 0
 62 512 75 517 91 517 c 0
 112 519 127 513 135 498 c 0
 138 493 139 486 140 478 c 0
 141 473 141 469 141 463 c 2
 141 250 l 2
 141 170 148 121 164 105 c 0
 186 82 211 83 241 106 c 0
 269 128 284 166 285 219 c 2
 291 465 l 2
 292 501 310 519 344 518 c 0
 374 517 388 499 387 464 c 2xa8
 375 8 l 2
 374 -22 360 -37 331 -37 c 0x90
EndSplineSet
EndChar

StartChar: ny
Encoding: 43 60823 48
Width: 439
Flags: W
HStem: 414 97<44.4429 287>
AnchorPoint: "Above" 211 647 basechar 0
AnchorPoint: "Below" 220 2 basechar 0
LayerCount: 3
Fore
SplineSet
251 70 m 0
 280 73 302 77 318 84 c 0
 334 91 355 107 383 134 c 1
 398 69 384 25 342 -0 c 1
 303 -17 l 1
 278 -25 251 -29 221 -29 c 0
 191 -29 161 -18 130 4 c 0
 91 32 67 67 60 110 c 0
 50 172 79 225 146 269 c 0
 230 324 277 372 287 413 c 1
 92 414 l 2
 55 414 37 431 38 467 c 0
 39 496 59 511 96 511 c 2
 346 511 l 2
 371 511 388 498 395 473 c 0
 401 454 396 428 382 395 c 0
 351 322 294 260 208 210 c 0
 158 181 144 145 165 101 c 0
 177 76 206 65 251 70 c 0
EndSplineSet
EndChar

StartChar: bahebu
Encoding: 44 60824 49
Width: 0
GlyphClass: 4
Flags: HW
HStem: -209 121<-49.392 42.7351>
VStem: -64 121<-195.694 -102.186>
AnchorPoint: "Below" -251 0 mark 0
LayerCount: 3
Fore
SplineSet
-256 -88 m 4
 -255 -88 -255 -88 -254 -88 c 4
 -243 -88 -233 -90 -224 -96 c 4
 -214 -102 -206 -111 -201 -121 c 4
 -196 -130 -194 -139 -194 -149 c 4
 -194 -151 -194 -152 -194 -154 c 4
 -195 -166 -199 -176 -206 -185 c 4
 -213 -193 -219 -200 -227 -204 c 4
 -235 -208 -245 -209 -255 -209 c 4
 -256 -209 -257 -209 -258 -209 c 4
 -268 -209 -278 -206 -286 -201 c 4
 -295 -196 -301 -189 -307 -180 c 4
 -313 -171 -315 -160 -315 -149 c 4
 -315 -139 -313 -129 -308 -120 c 4
 -302 -111 -295 -103 -287 -97 c 4
 -278 -91 -267 -88 -256 -88 c 4
EndSplineSet
EndChar

StartChar: iy
Encoding: 62 60842 50
Width: 407
VWidth: 0
Flags: W
HStem: 497 20G<198 210.5>
VStem: 291 89<-12.9307 50>
AnchorPoint: "Below" 201 -1 basechar 0
AnchorPoint: "Above" 202 646.461 basechar 0
LayerCount: 3
Fore
SplineSet
362 -16 m 0
 327 -31 304 -17 291 26 c 2
 207 314 l 1
 117 26 l 2
 104 -16 81 -30 47 -16 c 0
 21 -5 14 21 28 63 c 2
 167 464 l 2
 179 499 192 517 204 517 c 0
 217 517 230 499 242 464 c 2
 380 63 l 2
 394 22 388 -4 362 -16 c 0
EndSplineSet
EndChar

StartChar: uy
Encoding: 63 60843 51
Width: 407
Flags: W
HStem: -22 21G<198.5 211>
VStem: 29 89<445 507.931>
AnchorPoint: "Above" 201 645 basechar 0
AnchorPoint: "Below" 207 0 basechar 0
LayerCount: 3
Fore
SplineSet
47 511 m 0
 82 526 105 512 118 469 c 2
 202 181 l 1
 292 469 l 2
 305 511 328 525 362 511 c 0
 388 500 395 474 381 432 c 2
 242 31 l 2
 230 -4 217 -22 205 -22 c 0
 192 -22 179 -4 167 31 c 2
 29 432 l 2
 15 473 21 499 47 511 c 0
EndSplineSet
EndChar

StartChar: abu
Encoding: 52 60832 52
Width: 0
VWidth: 976
GlyphClass: 4
Flags: W
HStem: 602 198<-19.7649 20.8103>
VStem: -38 76<643.5 800>
AnchorPoint: "Above" 0 647 mark 0
LayerCount: 3
Fore
SplineSet
38 780 m 2
 38 710 l 1
 30 634 l 2
 29 625 26 617 21 610 c 0
 17 604 10 602 0 602 c 0
 -9 602 -15 604 -20 610 c 0
 -25 616 -29 624 -30 634 c 2
 -38 710 l 1
 -38 781 l 2
 -38 794 -32 800 -21 800 c 2
 24 800 l 2
 33 800 38 794 38 780 c 2
EndSplineSet
MultipleSubs2: "Multiple Substitution lookup 62 subtable" denpabu abu
EndChar

StartChar: ebu
Encoding: 53 60833 53
Width: 0
GlyphClass: 4
Flags: W
HStem: 621 74<-112.578 110.35>
VStem: -115 228<624.173 691.589>
AnchorPoint: "Above" 0 647 mark 0
LayerCount: 3
Fore
SplineSet
-77 695 m 6
 64 696 l 6
 97 696 113 683 113 658 c 4
 113 633 97 620 66 620 c 6
 -81 621 l 6
 -104 621 -115 633 -115 657 c 4
 -115 682 -102 695 -77 695 c 6
EndSplineSet
MultipleSubs2: "Multiple Substitution lookup 63 subtable" denpabu ebu
EndChar

StartChar: ibu
Encoding: 54 60834 54
Width: 0
GlyphClass: 4
Flags: W
HStem: 587 121<-47.392 44.7351>
VStem: -62 121<600.306 693.814>
AnchorPoint: "Above" 0 648 mark 0
LayerCount: 3
Fore
SplineSet
-3 708 m 0
 -2 708 -2 708 -1 708 c 0
 10 708 20 706 29 700 c 0
 39 694 47 685 52 675 c 0
 57 666 59 657 59 647 c 0
 59 645 59 644 59 642 c 0
 58 630 54 620 47 611 c 0
 40 603 34 596 26 592 c 0
 18 588 8 587 -2 587 c 0
 -3 587 -4 587 -5 587 c 0
 -15 587 -25 590 -33 595 c 0
 -42 600 -48 607 -54 616 c 0
 -60 625 -62 636 -62 647 c 0
 -62 657 -60 667 -55 676 c 0
 -49 685 -42 693 -34 699 c 0
 -25 705 -14 708 -3 708 c 0
EndSplineSet
MultipleSubs2: "Multiple Substitution lookup 64 subtable" denpabu ibu
Substitution2: "Single Substitution lookup 33 subtable" iy
Substitution2: "Single Substitution lookup 32 subtable" iy
Substitution2: "Single Substitution lookup 31 subtable" iy
Substitution2: "Single Substitution lookup 30 subtable" iy
Substitution2: "Single Substitution lookup 29 subtable" iy
Substitution2: "Single Substitution lookup 28 subtable" iy
Substitution2: "Single Substitution lookup 27 subtable" iy
Substitution2: "Single Substitution lookup 26 subtable" iy
Substitution2: "Single Substitution lookup 25 subtable" iy
Substitution2: "Single Substitution lookup 24 subtable" iy
Substitution2: "Single Substitution lookup 13 subtable" iy
Substitution2: "Single Substitution lookup 12 subtable" iy
Substitution2: "Single Substitution lookup 11 subtable" iy
Substitution2: "Single Substitution lookup 10 subtable" iy
Substitution2: "Single Substitution lookup 9 subtable" iy
Substitution2: "Single Substitution lookup 8 subtable" iy
Substitution2: "Single Substitution lookup 7 subtable" iy
Substitution2: "Single Substitution lookup 6 subtable" iy
Substitution2: "Single Substitution lookup 5 subtable" iy
Substitution2: "Single Substitution lookup 4 subtable" iy
EndChar

StartChar: obu
Encoding: 55 60835 55
Width: 0
VWidth: 1025
GlyphClass: 4
Flags: W
HStem: 612 64<12.4755 65.5607> 659 71<-75.545 -16.6988>
VStem: -145 277<659.563 675.488>
AnchorPoint: "Above" 0 647 mark 0
LayerCount: 3
Fore
SplineSet
-110 613 m 4x60
 -119 613 -127 618 -134 626 c 4
 -141 634 -145 645 -145 659 c 4
 -145 673 -135 689 -115 705 c 4
 -95 721 -75 730 -57 730 c 4x60
 -39 730 -25 727 -14 721 c 4
 -3 715 5 710 9 703 c 4
 20 685 30 676 39 676 c 4
 48 676 57 685 68 701 c 4
 79 717 89 726 98 726 c 4
 107 726 115 721 122 713 c 4
 129 705 132 697 132 688 c 4
 132 663 122 644 102 631 c 4
 82 618 62 612 43 612 c 4xa0
 24 612 10 616 0 624 c 4
 -10 632 -20 639 -27 647 c 4
 -34 655 -43 659 -52 659 c 4
 -56 659 -64 651 -77 636 c 4
 -90 621 -101 613 -110 613 c 4x60
EndSplineSet
MultipleSubs2: "Multiple Substitution lookup 65 subtable" denpabu obu
EndChar

StartChar: ubu
Encoding: 56 60836 56
Width: 0
VWidth: 1025
GlyphClass: 4
Flags: W
HStem: 607 66<-46.0881 40.8957>
VStem: -135 260<653.262 720>
AnchorPoint: "Above" 0 647 mark 0
LayerCount: 3
Fore
SplineSet
-124 739 m 4
 -117 747 -107 750 -95 750 c 4
 -83 750 -73 743 -66 729 c 4
 -59 715 -53 706 -50 700 c 4
 -47 694 -40 688 -32 682 c 4
 -24 676 -13 673 0 673 c 4
 13 673 24 677 32 685 c 4
 40 693 49 704 59 721 c 4
 69 738 80 747 91 747 c 4
 102 747 110 743 116 736 c 4
 122 729 125 720 125 709 c 4
 125 680 112 657 86 637 c 4
 60 617 29 607 -4 607 c 4
 -37 607 -67 617 -94 636 c 4
 -121 655 -135 679 -135 710 c 4
 -135 721 -131 731 -124 739 c 4
EndSplineSet
MultipleSubs2: "Multiple Substitution lookup 66 subtable" denpabu ubu
Substitution2: "Single Substitution lookup 43 subtable" uy
Substitution2: "Single Substitution lookup 42 subtable" uy
Substitution2: "Single Substitution lookup 41 subtable" uy
Substitution2: "Single Substitution lookup 40 subtable" uy
Substitution2: "Single Substitution lookup 39 subtable" uy
Substitution2: "Single Substitution lookup 38 subtable" uy
Substitution2: "Single Substitution lookup 37 subtable" uy
Substitution2: "Single Substitution lookup 36 subtable" uy
Substitution2: "Single Substitution lookup 35 subtable" uy
Substitution2: "Single Substitution lookup 34 subtable" uy
Substitution2: "Single Substitution lookup 23 subtable" uy
Substitution2: "Single Substitution lookup 22 subtable" uy
Substitution2: "Single Substitution lookup 21 subtable" uy
Substitution2: "Single Substitution lookup 20 subtable" uy
Substitution2: "Single Substitution lookup 19 subtable" uy
Substitution2: "Single Substitution lookup 18 subtable" uy
Substitution2: "Single Substitution lookup 17 subtable" uy
Substitution2: "Single Substitution lookup 16 subtable" uy
Substitution2: "Single Substitution lookup 15 subtable" uy
Substitution2: "Single Substitution lookup 14 subtable" uy
EndChar

StartChar: ybu
Encoding: 57 60837 57
Width: 0
GlyphClass: 4
Flags: W
HStem: 615.274 214.125<-12.96 4.71973>
VStem: -102.72 208.08<717.954 731.729>
AnchorPoint: "Above" 0 647 mark 0
LayerCount: 3
Fore
SplineSet
-24.51953125 764.911132812 m 1
 -44.919921875 751.137695312 -54.4404296875 735.485351562 -51.7197265625 717.328125 c 0
 -43.5595703125 689.780273438 l 0
 -37.4404296875 684.145507812 -31.3203125 677.883789062 -25.2001953125 672.249023438 c 1
 -18.400390625 666.614257812 -6.16015625 665.98828125 13.5595703125 669.745117188 c 0
 21.0400390625 670.997070312 30.5595703125 677.883789062 41.4404296875 689.154296875 c 0
 49.599609375 697.918945312 54.3603515625 705.432617188 55.7197265625 712.9453125 c 0
 58.4404296875 726.09375 52.3203125 741.74609375 37.3603515625 757.3984375 c 1
 16.2802734375 774.302734376 -4.1201171875 776.807617189 -24.51953125 764.911132812 c 1
-0.7197265625 829.399414062 m 0
 0.6396484375 829.399414062 0.6396484375 829.399414062 1.3203125 829.399414062 c 0
 15.599609375 829.399414062 31.240234375 824.390625 49.599609375 813.747070312 c 0
 69.3203125 802.477539062 84.2802734375 788.077148438 93.7998046875 768.66796875 c 0
 101.280273438 754.267578125 105.360351562 738.615234375 105.360351562 722.336914062 c 0
 105.360351562 717.954101562 104.6796875 712.319335938 104 707.936523438 c 0
 100.599609375 685.397460938 91.759765625 667.240234375 77.48046875 652.83984375 c 0
 68.6396484375 643.44921875 57.759765625 635.309570312 45.51953125 629.048828125 c 0
 33.2802734375 622.787109375 22.400390625 617.778320312 12.2001953125 615.900390625 c 0
 8.7998046875 615.274414062 4.7197265625 615.274414062 1.3203125 615.274414062 c 0
 -12.9599609375 615.274414062 -29.9599609375 620.283203125 -48.3203125 631.552734375 c 0
 -70.080078125 644.075195312 -85.0400390625 661.60546875 -94.5595703125 683.518554688 c 0
 -100 696.041015625 -102.719726562 708.5625 -102.719726562 722.336914062 c 0
 -102.719726562 731.728515625 -101.360351562 741.120117188 -98.6396484375 750.51171875 c 0
 -91.83984375 773.05078125 -78.240234375 792.459960938 -58.51953125 806.860351562 c 0
 -38.1201171875 821.260742188 -19.080078125 828.7734375 -0.7197265625 829.399414062 c 0
EndSplineSet
MultipleSubs2: "Multiple Substitution lookup 67 subtable" denpabu ybu
EndChar

StartChar: aibu
Encoding: 58 60838 58
Width: 0
VWidth: 0
GlyphClass: 4
Flags: W
HStem: 545 277<-0.137024 15.4883>
VStem: -48 64<701.616 755.561> -1 70<614.455 672.368>
AnchorPoint: "Above" 0 647 mark 0
LayerCount: 3
Fore
SplineSet
-47 580 m 0xa0
 -47 589 -39 600 -24 613 c 0
 -9 626 -1 634 -1 638 c 0xa0
 -1 647 -5 656 -13 663 c 0
 -21 670 -29 679 -37 689 c 0
 -45 699 -48 714 -48 733 c 0
 -48 752 -42 772 -29 792 c 0
 -16 812 2 822 27 822 c 0
 36 822 45 819 53 812 c 0
 61 805 65 797 65 788 c 0
 65 779 57 769 41 758 c 0
 25 747 16 738 16 729 c 0xc0
 16 720 24 710 42 699 c 0
 49 695 55 687 61 676 c 0
 67 665 69 651 69 633 c 0
 69 615 61 595 45 575 c 0
 29 555 13 545 -1 545 c 0
 -15 545 -27 549 -35 556 c 0
 -43 563 -47 571 -47 580 c 0xa0
EndSplineSet
MultipleSubs2: "Multiple Substitution lookup 68 subtable" denpabu aibu
Ligature2: "zlmVV subtable" abu ibu
EndChar

StartChar: eibu
Encoding: 59 60839 59
Width: 0
VWidth: 0
GlyphClass: 4
Flags: W
HStem: 635 66<-40.8957 46.0881>
VStem: -125 260<588 654.738>
AnchorPoint: "Above" 0 646 mark 0
LayerCount: 3
Fore
SplineSet
124 569 m 0
 117 561 107 558 95 558 c 0
 83 558 73 565 66 579 c 0
 59 593 53 602 50 608 c 0
 47 614 40 620 32 626 c 0
 24 632 13 635 0 635 c 0
 -13 635 -24 631 -32 623 c 0
 -40 615 -49 604 -59 587 c 0
 -69 570 -80 562 -91 562 c 0
 -102 562 -110 565 -116 572 c 0
 -122 579 -125 588 -125 599 c 0
 -125 628 -112 651 -86 671 c 0
 -60 691 -29 701 4 701 c 0
 37 701 67 691 94 672 c 0
 121 653 135 629 135 598 c 0
 135 587 131 577 124 569 c 0
EndSplineSet
MultipleSubs2: "Multiple Substitution lookup 69 subtable" denpabu eibu
Ligature2: "zlmVV subtable" ebu ibu
EndChar

StartChar: oibu
Encoding: 60 60840 60
Width: 0
VWidth: 976
GlyphClass: 4
Flags: W
HStem: 596 65<3.35563 66.5252>
AnchorPoint: "Above" 0 647 mark 0
LayerCount: 3
Fore
SplineSet
-134 611 m 0
 -147 627 -147 642 -134 657 c 2
 -7 799 l 1
 14 820 32 824 45 810 c 0
 58 796 56 779 39 759 c 2
 -19 690 l 1
 -10 694 -1 690 6 679 c 0
 14 666 25 661 39 661 c 0
 48 661 57 669 68 685 c 0
 79 701 89 710 98 710 c 0
 107 710 115 706 122 698 c 0
 129 690 132 681 132 672 c 0
 132 647 122 629 102 616 c 0
 82 603 62 596 43 596 c 0
 24 596 10 600 0 608 c 0
 -10 616 -19 624 -27 632 c 0
 -34 640 -43 643 -52 643 c 0
 -56 643 -64 635 -77 620 c 0
 -80 616 -83 614 -86 611 c 0
 -90 606 -95 602 -100 600 c 0
 -105 598 -108 597 -110 597 c 0
 -119 598 -127 603 -134 611 c 0
EndSplineSet
MultipleSubs2: "Multiple Substitution lookup 70 subtable" denpabu oibu
Ligature2: "zlmVV subtable" obu ibu
LCarets2: 1 0
EndChar

StartChar: aubu
Encoding: 61 60841 61
Width: 0
GlyphClass: 4
Flags: W
HStem: 553 244<-33 -9>
VStem: -54 125<691.094 783.627>
AnchorPoint: "Above" 0 646 mark 0
LayerCount: 3
Fore
SplineSet
-54 740 m 0
 -54 778 -33 797 9 797 c 0
 51 797 71 771 71 718 c 0
 71 704 70 690 66 676 c 0
 55 632 41 601 24 582 c 0
 7 563 -9 553 -24 553 c 0
 -61 553 -65 568 -34 600 c 0
 -19 615 -8 631 -2 647 c 0
 2 658 6 669 11 680 c 1
 -11 682 -25 685 -31 690 c 0
 -46 701 -54 715 -54 734 c 0
 -54 736 -54 738 -54 740 c 0
EndSplineSet
MultipleSubs2: "Multiple Substitution lookup 71 subtable" denpabu aubu
Ligature2: "zlmVV subtable" abu ubu
EndChar

StartChar: cnimahobu
Encoding: 31 60811 62
Width: 458
VWidth: 976
Flags: W
VStem: 313 98<-16.5963 233> 321 96<351.078 503.112>
LayerCount: 3
Fore
SplineSet
372 511 m 0x40
 403 510 418 490 417 448 c 2x40
 411 42 l 2
 410 -2 395 -24 364 -24 c 0
 329 -24 312 -3 313 38 c 2x80
 317 233 l 1
 298 224 277 217 253 212 c 1
 195 197 142 208 92 243 c 1
 45 270 21 294 19 316 c 0
 16 353 29 372 60 372 c 0
 69 372 93 358 133 331 c 1
 155 310 190 303 238 311 c 0
 286 319 314 355 321 419 c 1
 321 447 l 2
 322 490 339 512 372 511 c 0x40
EndSplineSet
EndChar

StartChar: abu.dot
Encoding: 84 -1 63
Width: 253
VWidth: 0
Flags: W
HStem: 289.473 121<79.1392 171.266>
VStem: 64.5312 121<302.779 396.287> 89 76<603.5 738>
LayerCount: 3
Fore
SplineSet
165 718 m 2xa0
 165 670 l 1
 157 594 l 2
 156 585 153 577 148 570 c 0
 144 564 137 562 127 562 c 0
 118 562 112 564 107 570 c 0
 102 576 98 584 97 594 c 2
 89 670 l 1
 89 719 l 2
 89 732 95 738 106 738 c 2
 151 738 l 2
 160 738 165 732 165 718 c 2xa0
123.53125 410.47265625 m 0
 124.53125 410.47265625 124.53125 410.47265625 125.53125 410.47265625 c 0
 136.53125 410.47265625 146.53125 408.47265625 155.53125 402.47265625 c 0
 165.53125 396.47265625 173.53125 387.47265625 178.53125 377.47265625 c 0
 183.53125 368.47265625 185.53125 359.47265625 185.53125 349.47265625 c 0
 185.53125 347.47265625 185.53125 346.47265625 185.53125 344.47265625 c 0
 184.53125 332.47265625 180.53125 322.47265625 173.53125 313.47265625 c 0
 166.53125 305.47265625 160.53125 298.47265625 152.53125 294.47265625 c 0
 144.53125 290.47265625 134.53125 289.47265625 124.53125 289.47265625 c 0
 123.53125 289.47265625 122.53125 289.47265625 121.53125 289.47265625 c 0
 111.53125 289.47265625 101.53125 292.47265625 93.53125 297.47265625 c 0
 84.53125 302.47265625 78.53125 309.47265625 72.53125 318.47265625 c 0
 66.53125 327.47265625 64.53125 338.47265625 64.53125 349.47265625 c 0xc0
 64.53125 359.47265625 66.53125 369.47265625 71.53125 378.47265625 c 0
 77.53125 387.47265625 84.53125 395.47265625 92.53125 401.47265625 c 0
 101.53125 407.47265625 112.53125 410.47265625 123.53125 410.47265625 c 0
EndSplineSet
EndChar

StartChar: ebu.dot
Encoding: 85 -1 64
Width: 253
VWidth: 0
Flags: W
HStem: 289.473 121<80.1392 172.266> 611 74<45.7109 202.175>
VStem: 44.5 159<611.147 684.853> 65.5312 121<302.779 396.287>
LayerCount: 3
Fore
SplineSet
124.53125 410.47265625 m 0xd0
 125.53125 410.47265625 125.53125 410.47265625 126.53125 410.47265625 c 0
 137.53125 410.47265625 147.53125 408.47265625 156.53125 402.47265625 c 0
 166.53125 396.47265625 174.53125 387.47265625 179.53125 377.47265625 c 0
 184.53125 368.47265625 186.53125 359.47265625 186.53125 349.47265625 c 0
 186.53125 347.47265625 186.53125 346.47265625 186.53125 344.47265625 c 0
 185.53125 332.47265625 181.53125 322.47265625 174.53125 313.47265625 c 0
 167.53125 305.47265625 161.53125 298.47265625 153.53125 294.47265625 c 0
 145.53125 290.47265625 135.53125 289.47265625 125.53125 289.47265625 c 0
 124.53125 289.47265625 123.53125 289.47265625 122.53125 289.47265625 c 0
 112.53125 289.47265625 102.53125 292.47265625 94.53125 297.47265625 c 0
 85.53125 302.47265625 79.53125 309.47265625 73.53125 318.47265625 c 0
 67.53125 327.47265625 65.53125 338.47265625 65.53125 349.47265625 c 0
 65.53125 359.47265625 67.53125 369.47265625 72.53125 378.47265625 c 0
 78.53125 387.47265625 85.53125 395.47265625 93.53125 401.47265625 c 0
 102.53125 407.47265625 113.53125 410.47265625 124.53125 410.47265625 c 0xd0
63.5 685 m 2
 179 686 l 2
 195.5 686 203.5 673 203.5 648 c 0
 203.5 623 195.5 610 180 610 c 2
 61.5 611 l 2
 50 611 44.5 623 44.5 647 c 0xe0
 44.5 672 51 685 63.5 685 c 2
EndSplineSet
EndChar

StartChar: ibu.dot
Encoding: 86 -1 65
Width: 253
VWidth: 0
Flags: W
HStem: 289.473 121<79.1392 171.266> 587.324 121<79.6744 171.801>
VStem: 64.5312 121<302.779 396.287 600.63 693.478>
LayerCount: 3
Fore
SplineSet
123.53125 410.47265625 m 0
 124.53125 410.47265625 124.53125 410.47265625 125.53125 410.47265625 c 0
 136.53125 410.47265625 146.53125 408.47265625 155.53125 402.47265625 c 0
 165.53125 396.47265625 173.53125 387.47265625 178.53125 377.47265625 c 0
 183.53125 368.47265625 185.53125 359.47265625 185.53125 349.47265625 c 0
 185.53125 347.47265625 185.53125 346.47265625 185.53125 344.47265625 c 0
 184.53125 332.47265625 180.53125 322.47265625 173.53125 313.47265625 c 0
 166.53125 305.47265625 160.53125 298.47265625 152.53125 294.47265625 c 0
 144.53125 290.47265625 134.53125 289.47265625 124.53125 289.47265625 c 0
 123.53125 289.47265625 122.53125 289.47265625 121.53125 289.47265625 c 0
 111.53125 289.47265625 101.53125 292.47265625 93.53125 297.47265625 c 0
 84.53125 302.47265625 78.53125 309.47265625 72.53125 318.47265625 c 0
 66.53125 327.47265625 64.53125 338.47265625 64.53125 349.47265625 c 0
 64.53125 359.47265625 66.53125 369.47265625 71.53125 378.47265625 c 0
 77.53125 387.47265625 84.53125 395.47265625 92.53125 401.47265625 c 0
 101.53125 407.47265625 112.53125 410.47265625 123.53125 410.47265625 c 0
124.06640625 708.32421875 m 0
 125.06640625 708.32421875 125.06640625 708.32421875 126.06640625 708.32421875 c 0
 137.06640625 708.32421875 147.06640625 706.32421875 156.06640625 700.32421875 c 0
 166.06640625 694.32421875 174.06640625 685.32421875 179.06640625 675.32421875 c 0
 184.06640625 666.32421875 186.06640625 657.32421875 186.06640625 647.32421875 c 0
 186.06640625 645.32421875 186.06640625 644.32421875 186.06640625 642.32421875 c 0
 185.06640625 630.32421875 181.06640625 620.32421875 174.06640625 611.32421875 c 0
 167.06640625 603.32421875 161.06640625 596.32421875 153.06640625 592.32421875 c 0
 145.06640625 588.32421875 135.06640625 587.32421875 125.06640625 587.32421875 c 0
 124.06640625 587.32421875 123.06640625 587.32421875 122.06640625 587.32421875 c 0
 112.06640625 587.32421875 102.06640625 590.32421875 94.06640625 595.32421875 c 0
 85.06640625 600.32421875 79.06640625 607.32421875 73.06640625 616.32421875 c 0
 67.06640625 625.32421875 65.06640625 636.32421875 65.06640625 647.32421875 c 0
 65.06640625 657.32421875 67.06640625 667.32421875 72.06640625 676.32421875 c 0
 78.06640625 685.32421875 85.06640625 693.32421875 93.06640625 699.32421875 c 0
 102.06640625 705.32421875 113.06640625 708.32421875 124.06640625 708.32421875 c 0
EndSplineSet
EndChar

StartChar: obu.dot
Encoding: 87 -1 66
Width: 253
VWidth: 0
Flags: W
HStem: 289.473 121<79.1392 171.266> 582 64<139.475 192.561> 629 71<51.455 110.301>
VStem: 64.5312 121<302.779 396.287>
CounterMasks: 1 e0
LayerCount: 3
Fore
SplineSet
123.53125 410.47265625 m 0x90
 124.53125 410.47265625 124.53125 410.47265625 125.53125 410.47265625 c 0
 136.53125 410.47265625 146.53125 408.47265625 155.53125 402.47265625 c 0
 165.53125 396.47265625 173.53125 387.47265625 178.53125 377.47265625 c 0
 183.53125 368.47265625 185.53125 359.47265625 185.53125 349.47265625 c 0
 185.53125 347.47265625 185.53125 346.47265625 185.53125 344.47265625 c 0
 184.53125 332.47265625 180.53125 322.47265625 173.53125 313.47265625 c 0
 166.53125 305.47265625 160.53125 298.47265625 152.53125 294.47265625 c 0
 144.53125 290.47265625 134.53125 289.47265625 124.53125 289.47265625 c 0
 123.53125 289.47265625 122.53125 289.47265625 121.53125 289.47265625 c 0
 111.53125 289.47265625 101.53125 292.47265625 93.53125 297.47265625 c 0
 84.53125 302.47265625 78.53125 309.47265625 72.53125 318.47265625 c 0
 66.53125 327.47265625 64.53125 338.47265625 64.53125 349.47265625 c 0
 64.53125 359.47265625 66.53125 369.47265625 71.53125 378.47265625 c 0
 77.53125 387.47265625 84.53125 395.47265625 92.53125 401.47265625 c 0
 101.53125 407.47265625 112.53125 410.47265625 123.53125 410.47265625 c 0x90
17 583 m 0
 8 583 0 588 -7 596 c 0
 -14 604 -18 615 -18 629 c 0
 -18 643 -8 659 12 675 c 0
 32 691 52 700 70 700 c 0xb0
 88 700 102 697 113 691 c 0
 124 685 132 680 136 673 c 0
 147 655 157 646 166 646 c 0
 175 646 184 655 195 671 c 0
 206 687 216 696 225 696 c 0
 234 696 242 691 249 683 c 0
 256 675 259 667 259 658 c 0
 259 633 249 614 229 601 c 0
 209 588 189 582 170 582 c 0xd0
 151 582 137 586 127 594 c 0
 117 602 107 609 100 617 c 0
 93 625 84 629 75 629 c 0xb0
 71 629 63 621 50 606 c 0
 37 591 26 583 17 583 c 0
EndSplineSet
EndChar

StartChar: ubu.dot
Encoding: 88 -1 67
Width: 253
VWidth: 0
Flags: W
HStem: 289.473 121<79.1392 171.266> 567 66<80.9119 167.896>
VStem: 64.5312 121<302.779 396.287>
LayerCount: 3
Fore
SplineSet
123.53125 410.47265625 m 0
 124.53125 410.47265625 124.53125 410.47265625 125.53125 410.47265625 c 0
 136.53125 410.47265625 146.53125 408.47265625 155.53125 402.47265625 c 0
 165.53125 396.47265625 173.53125 387.47265625 178.53125 377.47265625 c 0
 183.53125 368.47265625 185.53125 359.47265625 185.53125 349.47265625 c 0
 185.53125 347.47265625 185.53125 346.47265625 185.53125 344.47265625 c 0
 184.53125 332.47265625 180.53125 322.47265625 173.53125 313.47265625 c 0
 166.53125 305.47265625 160.53125 298.47265625 152.53125 294.47265625 c 0
 144.53125 290.47265625 134.53125 289.47265625 124.53125 289.47265625 c 0
 123.53125 289.47265625 122.53125 289.47265625 121.53125 289.47265625 c 0
 111.53125 289.47265625 101.53125 292.47265625 93.53125 297.47265625 c 0
 84.53125 302.47265625 78.53125 309.47265625 72.53125 318.47265625 c 0
 66.53125 327.47265625 64.53125 338.47265625 64.53125 349.47265625 c 0
 64.53125 359.47265625 66.53125 369.47265625 71.53125 378.47265625 c 0
 77.53125 387.47265625 84.53125 395.47265625 92.53125 401.47265625 c 0
 101.53125 407.47265625 112.53125 410.47265625 123.53125 410.47265625 c 0
3 699 m 0
 10 707 20 710 32 710 c 0
 44 710 54 703 61 689 c 0
 68 675 74 666 77 660 c 0
 80 654 87 648 95 642 c 0
 103 636 114 633 127 633 c 0
 140 633 151 637 159 645 c 0
 167 653 176 664 186 681 c 0
 196 698 207 707 218 707 c 0
 229 707 237 703 243 696 c 0
 249 689 252 680 252 669 c 0
 252 640 239 617 213 597 c 0
 187 577 156 567 123 567 c 0
 90 567 60 577 33 596 c 0
 6 615 -8 639 -8 670 c 0
 -8 681 -4 691 3 699 c 0
EndSplineSet
EndChar

StartChar: ybu.dot
Encoding: 89 -1 68
Width: 253
VWidth: 0
Flags: W
HStem: 289.473 121<80.1392 172.266>
VStem: 65.5312 121<302.779 396.287>
LayerCount: 3
Fore
SplineSet
102.936523438 695.08203125 m 1
 82.537109375 681.307617188 73.0166015625 665.655273438 75.736328125 647.499023438 c 0
 83.896484375 619.950195312 l 0
 90.0166015625 614.315429688 96.13671875 608.0546875 102.256835938 602.419921875 c 1
 109.056640625 596.78515625 121.296875 596.159179688 141.016601562 599.915039062 c 0
 148.497070312 601.16796875 158.016601562 608.0546875 168.896484375 619.32421875 c 0
 177.056640625 628.08984375 181.81640625 635.602539062 183.176757812 643.116210938 c 0
 185.896484375 656.264648438 179.776367188 671.916992188 164.81640625 687.569335938 c 1
 143.736328125 704.473632812 123.336914062 706.978515625 102.936523438 695.08203125 c 1
126.736328125 759.5703125 m 0
 128.096679688 759.5703125 128.096679688 759.5703125 128.776367188 759.5703125 c 0
 143.056640625 759.5703125 158.696289062 754.561523438 177.056640625 743.91796875 c 0
 196.776367188 732.6484375 211.736328125 718.248046875 221.256835938 698.838867188 c 0
 228.736328125 684.438476562 232.81640625 668.786132812 232.81640625 652.5078125 c 0
 232.81640625 648.125 232.13671875 642.490234375 231.45703125 638.107421875 c 0
 228.056640625 615.568359375 219.216796875 597.411132812 204.936523438 583.010742188 c 0
 196.096679688 573.619140625 185.216796875 565.48046875 172.9765625 559.21875 c 0
 160.736328125 552.958007812 149.856445312 547.94921875 139.65625 546.071289062 c 0
 136.256835938 545.4453125 132.176757812 545.4453125 128.776367188 545.4453125 c 0
 114.497070312 545.4453125 97.4970703125 550.454101562 79.13671875 561.723632812 c 0
 57.376953125 574.245117188 42.4169921875 591.776367188 32.896484375 613.689453125 c 0
 27.45703125 626.211914062 24.736328125 638.733398438 24.736328125 652.5078125 c 0
 24.736328125 661.899414062 26.0966796875 671.291015625 28.81640625 680.681640625 c 0
 35.6171875 703.221679688 49.216796875 722.630859375 68.9365234375 737.030273438 c 0
 89.3369140625 751.430664062 108.376953125 758.944335938 126.736328125 759.5703125 c 0
124.53125 410.47265625 m 0
 125.53125 410.47265625 125.53125 410.47265625 126.53125 410.47265625 c 0
 137.53125 410.47265625 147.53125 408.47265625 156.53125 402.47265625 c 0
 166.53125 396.47265625 174.53125 387.47265625 179.53125 377.47265625 c 0
 184.53125 368.47265625 186.53125 359.47265625 186.53125 349.47265625 c 0
 186.53125 347.47265625 186.53125 346.47265625 186.53125 344.47265625 c 0
 185.53125 332.47265625 181.53125 322.47265625 174.53125 313.47265625 c 0
 167.53125 305.47265625 161.53125 298.47265625 153.53125 294.47265625 c 0
 145.53125 290.47265625 135.53125 289.47265625 125.53125 289.47265625 c 0
 124.53125 289.47265625 123.53125 289.47265625 122.53125 289.47265625 c 0
 112.53125 289.47265625 102.53125 292.47265625 94.53125 297.47265625 c 0
 85.53125 302.47265625 79.53125 309.47265625 73.53125 318.47265625 c 0
 67.53125 327.47265625 65.53125 338.47265625 65.53125 349.47265625 c 0
 65.53125 359.47265625 67.53125 369.47265625 72.53125 378.47265625 c 0
 78.53125 387.47265625 85.53125 395.47265625 93.53125 401.47265625 c 0
 102.53125 407.47265625 113.53125 410.47265625 124.53125 410.47265625 c 0
EndSplineSet
EndChar

StartChar: aibu.dot
Encoding: 90 -1 69
Width: 253
VWidth: 0
Flags: W
HStem: 289.473 121<79.1392 171.266>
VStem: 64.5312 121<302.779 396.287> 78.6289 64<702.417 755.502> 125.629 71<614.396 673.243>
LayerCount: 3
Fore
SplineSet
123.53125 410.47265625 m 0xc0
 124.53125 410.47265625 124.53125 410.47265625 125.53125 410.47265625 c 0
 136.53125 410.47265625 146.53125 408.47265625 155.53125 402.47265625 c 0
 165.53125 396.47265625 173.53125 387.47265625 178.53125 377.47265625 c 0
 183.53125 368.47265625 185.53125 359.47265625 185.53125 349.47265625 c 0
 185.53125 347.47265625 185.53125 346.47265625 185.53125 344.47265625 c 0
 184.53125 332.47265625 180.53125 322.47265625 173.53125 313.47265625 c 0
 166.53125 305.47265625 160.53125 298.47265625 152.53125 294.47265625 c 0
 144.53125 290.47265625 134.53125 289.47265625 124.53125 289.47265625 c 0
 123.53125 289.47265625 122.53125 289.47265625 121.53125 289.47265625 c 0
 111.53125 289.47265625 101.53125 292.47265625 93.53125 297.47265625 c 0
 84.53125 302.47265625 78.53125 309.47265625 72.53125 318.47265625 c 0
 66.53125 327.47265625 64.53125 338.47265625 64.53125 349.47265625 c 0
 64.53125 359.47265625 66.53125 369.47265625 71.53125 378.47265625 c 0
 77.53125 387.47265625 84.53125 395.47265625 92.53125 401.47265625 c 0
 101.53125 407.47265625 112.53125 410.47265625 123.53125 410.47265625 c 0xc0
79.62890625 579.94140625 m 0
 79.62890625 588.94140625 87.62890625 599.94140625 102.62890625 612.94140625 c 0
 117.62890625 625.94140625 125.62890625 633.94140625 125.62890625 637.94140625 c 0x90
 125.62890625 646.94140625 121.62890625 655.94140625 113.62890625 662.94140625 c 0
 105.62890625 669.94140625 98.62890625 679.94140625 90.62890625 689.94140625 c 0
 82.62890625 699.94140625 78.62890625 713.94140625 78.62890625 732.94140625 c 0
 78.62890625 751.94140625 84.62890625 771.94140625 97.62890625 791.94140625 c 0
 110.62890625 811.94140625 129.62890625 821.94140625 154.62890625 821.94140625 c 0
 163.62890625 821.94140625 171.62890625 818.94140625 179.62890625 811.94140625 c 0
 187.62890625 804.94140625 192.62890625 796.94140625 192.62890625 787.94140625 c 0
 192.62890625 778.94140625 183.62890625 768.94140625 167.62890625 757.94140625 c 0
 151.62890625 746.94140625 142.62890625 737.94140625 142.62890625 728.94140625 c 0xa0
 142.62890625 719.94140625 151.62890625 709.94140625 169.62890625 698.94140625 c 0
 176.62890625 694.94140625 181.62890625 686.94140625 187.62890625 675.94140625 c 0
 193.62890625 664.94140625 196.62890625 650.94140625 196.62890625 632.94140625 c 0
 196.62890625 614.94140625 187.62890625 594.94140625 171.62890625 574.94140625 c 0
 155.62890625 554.94140625 139.62890625 544.94140625 125.62890625 544.94140625 c 0x90
 111.62890625 544.94140625 100.62890625 548.94140625 92.62890625 555.94140625 c 0
 84.62890625 562.94140625 79.62890625 570.94140625 79.62890625 579.94140625 c 0
EndSplineSet
EndChar

StartChar: eibu.dot
Encoding: 91 -1 70
Width: 253
VWidth: 0
Flags: W
HStem: 289.473 121<79.1392 171.266> 635.115 66<86.1043 173.088>
VStem: 64.5312 121<302.779 396.287>
LayerCount: 3
Fore
SplineSet
251 569.115234375 m 0
 244 561.115234375 234 558.115234375 222 558.115234375 c 0
 210 558.115234375 200 565.115234375 193 579.115234375 c 0
 186 593.115234375 180 602.115234375 177 608.115234375 c 0
 174 614.115234375 167 620.115234375 159 626.115234375 c 0
 151 632.115234375 140 635.115234375 127 635.115234375 c 0
 114 635.115234375 103 631.115234375 95 623.115234375 c 0
 87 615.115234375 78 604.115234375 68 587.115234375 c 0
 58 570.115234375 47 561.115234375 36 561.115234375 c 0
 25 561.115234375 17 565.115234375 11 572.115234375 c 0
 5 579.115234375 2 588.115234375 2 599.115234375 c 0
 2 628.115234375 15 651.115234375 41 671.115234375 c 0
 67 691.115234375 98 701.115234375 131 701.115234375 c 0
 164 701.115234375 194 691.115234375 221 672.115234375 c 0
 248 653.115234375 262 629.115234375 262 598.115234375 c 0
 262 587.115234375 258 577.115234375 251 569.115234375 c 0
123.53125 410.47265625 m 0
 124.53125 410.47265625 124.53125 410.47265625 125.53125 410.47265625 c 0
 136.53125 410.47265625 146.53125 408.47265625 155.53125 402.47265625 c 0
 165.53125 396.47265625 173.53125 387.47265625 178.53125 377.47265625 c 0
 183.53125 368.47265625 185.53125 359.47265625 185.53125 349.47265625 c 0
 185.53125 347.47265625 185.53125 346.47265625 185.53125 344.47265625 c 0
 184.53125 332.47265625 180.53125 322.47265625 173.53125 313.47265625 c 0
 166.53125 305.47265625 160.53125 298.47265625 152.53125 294.47265625 c 0
 144.53125 290.47265625 134.53125 289.47265625 124.53125 289.47265625 c 0
 123.53125 289.47265625 122.53125 289.47265625 121.53125 289.47265625 c 0
 111.53125 289.47265625 101.53125 292.47265625 93.53125 297.47265625 c 0
 84.53125 302.47265625 78.53125 309.47265625 72.53125 318.47265625 c 0
 66.53125 327.47265625 64.53125 338.47265625 64.53125 349.47265625 c 0
 64.53125 359.47265625 66.53125 369.47265625 71.53125 378.47265625 c 0
 77.53125 387.47265625 84.53125 395.47265625 92.53125 401.47265625 c 0
 101.53125 407.47265625 112.53125 410.47265625 123.53125 410.47265625 c 0
EndSplineSet
EndChar

StartChar: oibu.dot
Encoding: 92 -1 71
Width: 253
VWidth: 0
Flags: W
HStem: 289.473 121<79.1392 171.266> 567 65<130.356 193.525>
VStem: 64.5312 121<302.779 396.287>
LayerCount: 3
Fore
SplineSet
-7 582 m 4
 -20 598 -20 613 -7 628 c 6
 120 770 l 5
 141 791 159 795 172 781 c 4
 185 767 183 750 166 730 c 6
 108 661 l 5
 117 665 126 661 133 650 c 4
 141 637 152 632 166 632 c 4
 175 632 184 640 195 656 c 4
 206 672 216 681 225 681 c 4
 234 681 242 677 249 669 c 4
 256 661 259 652 259 643 c 4
 259 618 249 600 229 587 c 4
 209 574 189 567 170 567 c 4
 151 567 137 571 127 579 c 4
 117 587 108 595 100 603 c 4
 93 611 84 614 75 614 c 4
 71 614 63 606 50 591 c 4
 47 587 44 585 41 582 c 4
 37 577 32 573 27 571 c 4
 22 569 19 568 17 568 c 4
 8 569 0 574 -7 582 c 4
123.53125 410.47265625 m 0
 124.53125 410.47265625 124.53125 410.47265625 125.53125 410.47265625 c 0
 136.53125 410.47265625 146.53125 408.47265625 155.53125 402.47265625 c 0
 165.53125 396.47265625 173.53125 387.47265625 178.53125 377.47265625 c 0
 183.53125 368.47265625 185.53125 359.47265625 185.53125 349.47265625 c 0
 185.53125 347.47265625 185.53125 346.47265625 185.53125 344.47265625 c 0
 184.53125 332.47265625 180.53125 322.47265625 173.53125 313.47265625 c 0
 166.53125 305.47265625 160.53125 298.47265625 152.53125 294.47265625 c 0
 144.53125 290.47265625 134.53125 289.47265625 124.53125 289.47265625 c 0
 123.53125 289.47265625 122.53125 289.47265625 121.53125 289.47265625 c 0
 111.53125 289.47265625 101.53125 292.47265625 93.53125 297.47265625 c 0
 84.53125 302.47265625 78.53125 309.47265625 72.53125 318.47265625 c 0
 66.53125 327.47265625 64.53125 338.47265625 64.53125 349.47265625 c 0
 64.53125 359.47265625 66.53125 369.47265625 71.53125 378.47265625 c 0
 77.53125 387.47265625 84.53125 395.47265625 92.53125 401.47265625 c 0
 101.53125 407.47265625 112.53125 410.47265625 123.53125 410.47265625 c 0
EndSplineSet
EndChar

StartChar: aubu.dot
Encoding: 93 -1 72
Width: 253
VWidth: 0
Flags: W
HStem: 289.473 121<79.1392 171.266>
VStem: 64.5312 121<302.779 396.287> 73 125<691.094 783.627>
LayerCount: 3
Fore
SplineSet
73 740 m 0xa0
 73 778 94 797 136 797 c 0
 178 797 198 771 198 718 c 0
 198 704 197 690 193 676 c 0
 182 632 168 601 151 582 c 0
 134 563 118 553 103 553 c 0
 66 553 62 568 93 600 c 0
 108 615 119 631 125 647 c 0
 129 658 133 669 138 680 c 1
 116 682 102 685 96 690 c 0
 81 701 73 715 73 734 c 0
 73 736 73 738 73 740 c 0xa0
123.53125 410.47265625 m 0
 124.53125 410.47265625 124.53125 410.47265625 125.53125 410.47265625 c 0
 136.53125 410.47265625 146.53125 408.47265625 155.53125 402.47265625 c 0
 165.53125 396.47265625 173.53125 387.47265625 178.53125 377.47265625 c 0
 183.53125 368.47265625 185.53125 359.47265625 185.53125 349.47265625 c 0
 185.53125 347.47265625 185.53125 346.47265625 185.53125 344.47265625 c 0
 184.53125 332.47265625 180.53125 322.47265625 173.53125 313.47265625 c 0
 166.53125 305.47265625 160.53125 298.47265625 152.53125 294.47265625 c 0
 144.53125 290.47265625 134.53125 289.47265625 124.53125 289.47265625 c 0
 123.53125 289.47265625 122.53125 289.47265625 121.53125 289.47265625 c 0
 111.53125 289.47265625 101.53125 292.47265625 93.53125 297.47265625 c 0
 84.53125 302.47265625 78.53125 309.47265625 72.53125 318.47265625 c 0
 66.53125 327.47265625 64.53125 338.47265625 64.53125 349.47265625 c 0xc0
 64.53125 359.47265625 66.53125 369.47265625 71.53125 378.47265625 c 0
 77.53125 387.47265625 84.53125 395.47265625 92.53125 401.47265625 c 0
 101.53125 407.47265625 112.53125 410.47265625 123.53125 410.47265625 c 0
EndSplineSet
EndChar

StartChar: denpabu.cas
Encoding: 51 -1 73
Width: 253
VWidth: 976
Flags: W
VStem: 321 82<352.157 479.124>
AnchorPoint: "Below" 118 0 basechar 0
AnchorPoint: "Above" 99 647 basechar 0
LayerCount: 3
Fore
SplineSet
367 483 m 0
 392 483 402 470 403 444 c 1
 397 350 369 281 317 233 c 1
 298 224 277 217 253 212 c 1
 195 197 142 208 92 243 c 1
 45 270 21 294 19 316 c 0
 16 353 29 372 60 372 c 0
 69 372 93 358 133 331 c 1
 155 310 190 303 238 311 c 0
 286 319 314 355 321 419 c 1
 321 447 l 2
 321 471 337 483 367 483 c 0
EndSplineSet
EndChar

StartChar: bahebu_bahebu
Encoding: 78 -1 75
Width: 0
Flags: HW
HStem: -209 121<-128.392 -36.2649 36.608 128.735>
VStem: -143 121<-195.694 -102.186> 22 121<-195.694 -102.186>
AnchorPoint: "Below" -261 0 mark 0
LayerCount: 3
Fore
SplineSet
-345 -88 m 4
 -344 -88 -344 -88 -343 -88 c 4
 -332 -88 -322 -90 -313 -96 c 4
 -303 -102 -295 -111 -290 -121 c 4
 -285 -130 -283 -139 -283 -149 c 4
 -283 -151 -283 -152 -283 -154 c 4
 -284 -166 -288 -176 -295 -185 c 4
 -302 -193 -308 -200 -316 -204 c 4
 -324 -208 -334 -209 -344 -209 c 4
 -345 -209 -346 -209 -347 -209 c 4
 -357 -209 -367 -206 -375 -201 c 4
 -384 -196 -390 -189 -396 -180 c 4
 -402 -171 -404 -160 -404 -149 c 4
 -404 -139 -402 -129 -397 -120 c 4
 -391 -111 -384 -103 -376 -97 c 4
 -367 -91 -356 -88 -345 -88 c 4
-180 -88 m 4
 -179 -88 -179 -88 -178 -88 c 4
 -167 -88 -157 -90 -148 -96 c 4
 -138 -102 -130 -111 -125 -121 c 4
 -120 -130 -118 -139 -118 -149 c 4
 -118 -151 -118 -152 -118 -154 c 4
 -119 -166 -123 -176 -130 -185 c 4
 -137 -193 -143 -200 -151 -204 c 4
 -159 -208 -169 -209 -179 -209 c 4
 -180 -209 -181 -209 -182 -209 c 4
 -192 -209 -202 -206 -210 -201 c 4
 -219 -196 -225 -189 -231 -180 c 4
 -237 -171 -239 -160 -239 -149 c 4
 -239 -139 -237 -129 -232 -120 c 4
 -226 -111 -219 -103 -211 -97 c 4
 -202 -91 -191 -88 -180 -88 c 4
EndSplineSet
Ligature2: "zlmBahebu subtable" bahebu bahebu
LCarets2: 1 0
EndChar

StartChar: bahebu_bahebu_bahebu
Encoding: 79 -1 76
Width: 0
Flags: HW
HStem: -340 121<-47.392 44.7351> -209 121<-127.392 -35.2649 42.608 134.735>
VStem: -142 121<-195.694 -102.186> -62 121<-326.694 -233.186> 28 121<-195.694 -102.186>
AnchorPoint: "Below" -265 0 mark 0
LayerCount: 3
Fore
SplineSet
-348 -88 m 4xe0
 -347 -88 -347 -88 -346 -88 c 4
 -335 -88 -325 -90 -316 -96 c 4
 -306 -102 -298 -111 -293 -121 c 4
 -288 -130 -286 -139 -286 -149 c 4
 -286 -151 -286 -152 -286 -154 c 4
 -287 -166 -291 -176 -298 -185 c 4
 -305 -193 -311 -200 -319 -204 c 4
 -327 -208 -337 -209 -347 -209 c 4
 -348 -209 -349 -209 -350 -209 c 4
 -360 -209 -370 -206 -378 -201 c 4
 -387 -196 -393 -189 -399 -180 c 4
 -405 -171 -407 -160 -407 -149 c 4
 -407 -139 -405 -129 -400 -120 c 4
 -394 -111 -387 -103 -379 -97 c 4
 -370 -91 -359 -88 -348 -88 c 4xe0
-178 -88 m 4
 -177 -88 -177 -88 -176 -88 c 4
 -165 -88 -155 -90 -146 -96 c 4
 -136 -102 -128 -111 -123 -121 c 4
 -118 -130 -116 -139 -116 -149 c 4
 -116 -151 -116 -152 -116 -154 c 4
 -117 -166 -121 -176 -128 -185 c 4
 -135 -193 -141 -200 -149 -204 c 4
 -157 -208 -167 -209 -177 -209 c 4
 -178 -209 -179 -209 -180 -209 c 4
 -190 -209 -200 -206 -208 -201 c 4
 -217 -196 -223 -189 -229 -180 c 4
 -235 -171 -237 -160 -237 -149 c 4xc8
 -237 -139 -235 -129 -230 -120 c 4
 -224 -111 -217 -103 -209 -97 c 4
 -200 -91 -189 -88 -178 -88 c 4
-268 -219 m 4
 -267 -219 -267 -219 -266 -219 c 4
 -255 -219 -245 -221 -236 -227 c 4
 -226 -233 -218 -242 -213 -252 c 4
 -208 -261 -206 -270 -206 -280 c 4
 -206 -282 -206 -283 -206 -285 c 4
 -207 -297 -211 -307 -218 -316 c 4
 -225 -324 -231 -331 -239 -335 c 4
 -247 -339 -257 -340 -267 -340 c 4
 -268 -340 -269 -340 -270 -340 c 4
 -280 -340 -290 -337 -298 -332 c 4
 -307 -327 -313 -320 -319 -311 c 4
 -325 -302 -327 -291 -327 -280 c 4xd0
 -327 -270 -325 -260 -320 -251 c 4
 -314 -242 -307 -234 -299 -228 c 4
 -290 -222 -279 -219 -268 -219 c 4
EndSplineSet
Ligature2: "zlmBahebu subtable" bahebu bahebu bahebu
LCarets2: 2 0 0
EndChar

StartChar: smajibu
Encoding: 45 60825 77
Width: 397
Flags: W
HStem: 229 74<37.3096 347.328>
VStem: 35 315<232.411 300.578>
LayerCount: 3
Fore
SplineSet
70 303 m 2
 305 304 l 2
 336 304 350 292 350 267 c 0
 350 242 336 229 307 229 c 2
 67 229 l 2
 46 229 35 241 35 265 c 0
 35 290 47 303 70 303 c 2
EndSplineSet
Substitution2: "Single Substitution lookup 60 subtable" smajibu.fina
Substitution2: "Single Substitution lookup 59 subtable" smajibu.fina
Substitution2: "Single Substitution lookup 58 subtable" smajibu.fina
Substitution2: "Single Substitution lookup 56 subtable" smajibu.medi
Substitution2: "Single Substitution lookup 55 subtable" smajibu.medi
Substitution2: "Single Substitution lookup 54 subtable" smajibu.medi
Substitution2: "Single Substitution lookup 53 subtable" smajibu.medi
Substitution2: "Single Substitution lookup 52 subtable" smajibu.medi
Substitution2: "Single Substitution lookup 51 subtable" smajibu.medi
Substitution2: "Single Substitution lookup 49 subtable" smajibu.init
Substitution2: "Single Substitution lookup 48 subtable" smajibu.init
Substitution2: "Single Substitution lookup 47 subtable" smajibu.init
EndChar

StartChar: smajibu.init
Encoding: 48 -1 78
Width: 302
Flags: W
HStem: 229 74<37.3096 347.328>
VStem: 35 315<232.411 300.578>
LayerCount: 3
Fore
SplineSet
70 303 m 2
 305 304 l 2
 336 304 350 292 350 267 c 0
 350 242 336 229 307 229 c 2
 67 229 l 2
 46 229 35 241 35 265 c 0
 35 290 47 303 70 303 c 2
EndSplineSet
EndChar

StartChar: smajibu.medi
Encoding: 49 -1 79
Width: 236
Flags: W
HStem: 229 74<-29.6904 280.359>
VStem: -32 315<232.411 300.454>
LayerCount: 3
Fore
SplineSet
3 303 m 2
 237 304 l 2
 268 304 283 292 283 267 c 0
 283 242 269 229 240 229 c 2
 -0 229 l 2
 -21 229 -32 241 -32 265 c 0
 -32 290 -20 303 3 303 c 2
EndSplineSet
EndChar

StartChar: smajibu.fina
Encoding: 50 -1 80
Width: 329
Flags: W
HStem: 229 74<-30.6904 279.359>
VStem: -33 315<232.411 300.454>
LayerCount: 3
Fore
SplineSet
2 303 m 2
 236 304 l 2
 267 304 282 292 282 267 c 0
 282 242 268 229 239 229 c 2
 -1 229 l 2
 -22 229 -33 241 -33 265 c 0
 -33 290 -21 303 2 303 c 2
EndSplineSet
EndChar

StartChar: patonga
Encoding: 32 60812 81
Width: 0
Flags: HW
AnchorPoint: "Below" -238 0 mark 0
LayerCount: 3
Fore
SplineSet
-317.139648438 -165.50390625 m 2
 -199.930664062 -87.1201171875 l 2
 -172.5 -68.775390625 -151.857421875 -71.02734375 -138.107421875 -91.9072265625 c 0
 -124.357421875 -112.786132812 -130.456054688 -132.620117188 -156.4609375 -149.493164062 c 2
 -279.78125 -229.505859375 l 2
 -299.075195312 -242.024414062 -314.776367188 -238.18359375 -327.9765625 -218.139648438 c 0
 -341.7265625 -197.260742188 -337.919921875 -179.400390625 -317.139648438 -165.50390625 c 2
EndSplineSet
EndChar

StartChar: retonga
Encoding: 33 60813 82
Width: 0
Flags: HW
AnchorPoint: "Below" -235 0 mark 0
LayerCount: 3
Fore
SplineSet
-152.944335938 -165.50390625 m 6
 -270.153320312 -87.1201171875 l 6
 -297.583984375 -68.775390625 -318.2265625 -71.02734375 -331.9765625 -91.9072265625 c 4
 -345.7265625 -112.786132812 -339.627929688 -132.620117188 -313.623046875 -149.493164062 c 6
 -190.302734375 -229.505859375 l 6
 -171.008789062 -242.024414062 -155.307617188 -238.18359375 -142.107421875 -218.139648438 c 4
 -128.357421875 -197.260742188 -132.1640625 -179.400390625 -152.944335938 -165.50390625 c 6
EndSplineSet
EndChar

StartChar: citonga
Encoding: 34 60814 83
Width: 0
Flags: HW
AnchorPoint: "Below" -236 0 mark 0
LayerCount: 3
Fore
SplineSet
-385.909179688 -165.50390625 m 6
 -268.700195312 -87.1201171875 l 6
 -260.737304688 -81.794921875 -253.346679688 -78.205078125 -246.530273438 -76.302734375 c 4
 -243.227539062 -75.173828125 -239.717773438 -74.6328125 -236 -74.6904296875 c 4
 -232.282226562 -74.6328125 -228.772460938 -75.173828125 -225.469726562 -76.302734375 c 4
 -218.653320312 -78.205078125 -211.262695312 -81.794921875 -203.299804688 -87.1201171875 c 6
 -86.0908203125 -165.50390625 l 6
 -65.310546875 -179.400390625 -61.50390625 -197.260742188 -75.25390625 -218.139648438 c 4
 -88.4541015625 -238.18359375 -104.155273438 -242.024414062 -123.44921875 -229.505859375 c 6
 -236 -156.48046875 l 5
 -348.55078125 -229.505859375 l 6
 -367.844726562 -242.024414062 -383.545898438 -238.18359375 -396.74609375 -218.139648438 c 4
 -410.49609375 -197.260742188 -406.689453125 -179.400390625 -385.909179688 -165.50390625 c 6
EndSplineSet
EndChar

StartChar: votonga
Encoding: 35 60815 84
Width: 0
Flags: HW
AnchorPoint: "Below" -237 0 mark 0
LayerCount: 3
Fore
SplineSet
-388.909179688 -138.692382812 m 2
 -409.689453125 -124.795898438 -413.49609375 -106.935546875 -399.74609375 -86.056640625 c 0
 -386.545898438 -66.0126953125 -370.844726562 -62.171875 -351.55078125 -74.6904296875 c 2
 -239 -147.715820312 l 1
 -126.44921875 -74.6904296875 l 2
 -107.155273438 -62.171875 -91.4541015625 -66.0126953125 -78.25390625 -86.056640625 c 0
 -64.50390625 -106.935546875 -68.310546875 -124.795898438 -89.0908203125 -138.692382812 c 2
 -206.299804688 -217.076171875 l 2
 -214.262695312 -222.401367188 -221.653320312 -225.991210938 -228.469726562 -227.893554688 c 0
 -231.772460938 -229.022460938 -235.282226562 -229.563476562 -239 -229.505859375 c 0
 -242.717773438 -229.563476562 -246.227539062 -229.022460938 -249.530273438 -227.893554688 c 0
 -256.346679688 -225.991210938 -263.737304688 -222.401367188 -271.700195312 -217.076171875 c 2
 -388.909179688 -138.692382812 l 2
EndSplineSet
EndChar

StartChar: tcenabu
Encoding: 47 60827 85
Width: 0
Flags: HW
HStem: 229 74<37.3096 347.328>
VStem: 35 315<232.411 300.578>
AnchorPoint: "Below" -249 0 basechar 0
LayerCount: 3
Fore
SplineSet
-369 -99 m 2
 -134 -98 l 2
 -103 -98 -89 -110 -89 -135 c 0
 -89 -160 -103 -173 -132 -173 c 2
 -372 -173 l 2
 -393 -173 -404 -161 -404 -137 c 0
 -404 -112 -392 -99 -369 -99 c 2
EndSplineSet
EndChar

StartChar: yhy.cas
Encoding: 67 -1 86
Width: 244
Flags: W
VStem: 59 97<-16.5963 395.875> 67 96<89.125 503.112>
AnchorPoint: "Below" 114 1 basechar 0
AnchorPoint: "Above" 118 646 basechar 0
LayerCount: 3
Fore
SplineSet
118 511 m 0x40
 149 510 164 490 163 448 c 2x40
 156 42 l 2
 155 -2 140 -24 109 -24 c 0
 74 -24 58 -3 59 38 c 2x80
 67 447 l 2
 68 490 85 512 118 511 c 0x40
EndSplineSet
EndChar
